<svg width="14" height="18" viewBox="0 0 14 18" fill="none" xmlns="http://www.w3.org/2000/svg">
<path d="M6.8657 0C3.19922 0 0.216431 2.98279 0.216431 6.64928C0.216431 7.85632 0.75776 9.1545 0.780445 9.20926C0.955282 9.62425 1.30026 10.2688 1.54902 10.6467L6.10808 17.5545C6.29465 17.8377 6.57079 18 6.8657 18C7.16062 18 7.43676 17.8377 7.62333 17.5549L12.1828 10.6467C12.4319 10.2688 12.7765 9.62425 12.9514 9.20926C12.974 9.15489 13.515 7.85671 13.515 6.64928C13.515 2.98279 10.5322 0 6.8657 0ZM12.2301 8.90574C12.074 9.27771 11.7529 9.87731 11.5296 10.216L6.97014 17.1243C6.88017 17.2608 6.85162 17.2608 6.76166 17.1243L2.20222 10.216C1.97888 9.87731 1.65776 9.27731 1.5017 8.90534C1.49505 8.88931 0.998698 7.69439 0.998698 6.64928C0.998698 3.41421 3.63064 0.782269 6.8657 0.782269C10.1008 0.782269 12.7327 3.41421 12.7327 6.64928C12.7327 7.69596 12.2352 8.894 12.2301 8.90574Z" fill="#87898C"/>
<path d="M6.86572 3.12939C4.92453 3.12939 3.34552 4.70879 3.34552 6.64959C3.34552 8.5904 4.92453 10.1698 6.86572 10.1698C8.80692 10.1698 10.3859 8.5904 10.3859 6.64959C10.3859 4.70879 8.80692 3.12939 6.86572 3.12939ZM6.86572 9.38753C5.35634 9.38753 4.12779 8.15937 4.12779 6.64959C4.12779 5.13982 5.35634 3.91166 6.86572 3.91166C8.3751 3.91166 9.60365 5.13982 9.60365 6.64959C9.60365 8.15937 8.3751 9.38753 6.86572 9.38753Z" fill="#87898C"/>
</svg>
