<svg width="426" height="281" viewBox="0 0 426 281" fill="none" xmlns="http://www.w3.org/2000/svg">
<rect width="426" height="281" rx="10" fill="#EDEDED"/>
<g clipPath="url(#clip0)">
<path d="M199.325 139.625C199.414 139.003 198.259 132.959 197.947 132.247C197.147 130.381 196.658 128.381 196.214 126.425C195.681 124.07 193.591 122.07 192.658 119.937C192.347 119.181 191.947 118.381 191.547 117.625C191.147 116.87 190.747 116.159 190.347 115.403C189.28 113.492 187.724 111.937 186.702 110.026C186.124 108.914 183.413 105.714 183.324 105.67C183.324 105.67 174.701 98.6035 173.857 97.6257C173.323 97.0035 168.834 94.8702 168.078 94.6035C167.278 94.2924 164.923 92.9591 164.345 92.8702C164.034 92.8258 160.344 91.048 159.1 91.048C157.811 91.0036 156.522 90.8258 155.277 90.4258C154.744 90.2036 150.21 89.2703 149.499 89.2703C145.232 89.2703 142.165 89.4036 140.832 89.448C139.143 89.5369 127.408 91.048 126.964 91.3591C126.697 91.5369 116.919 93.6702 110.696 97.8035C109.585 98.559 96.9616 107.937 90.6056 117.981C90.3833 118.425 85.9385 128.07 85.8941 128.514C85.4941 129.714 83.5828 136.159 83.5384 136.603C83.4495 137.714 83.3606 138.781 83.2272 139.892C83.2272 139.936 83.1383 145.181 83.2272 146.692C83.2717 147.403 83.0939 151.447 83.005 152.736C82.9605 153.314 83.2272 155.492 83.2717 156.114C83.3606 156.736 83.6272 159.714 83.7606 160.38C83.805 160.78 85.2718 165.491 85.4496 166.158C85.4941 166.558 88.5165 173.447 88.6054 173.936C88.6054 173.936 90.9167 178.469 91.2723 178.958C91.8501 179.891 92.5613 181.225 93.4058 182.113C93.9392 182.691 97.2728 186.78 97.495 186.691C97.6284 186.602 97.6284 186.158 97.5839 185.669C97.5839 185.536 97.5395 185.402 97.5395 185.269C97.5395 185.136 97.495 185.002 97.495 184.869C97.495 184.78 97.495 184.736 97.4506 184.647C97.4061 184.425 97.4061 184.247 97.3617 184.025C97.3172 183.713 97.2728 183.402 97.2728 183.18C97.2728 183.18 96.9616 180.958 96.9616 180.425C96.9172 179.758 96.8283 179.136 97.0505 178.469C97.0505 178.38 98.1617 169.447 98.6062 168.069C98.5173 167.714 99.2729 165.803 99.9841 165.314C100.829 164.736 101.14 164.78 101.362 165.714C101.451 166.069 101.629 166.291 101.806 166.603C102.34 167.447 103.762 170.78 104.073 171.447C105.051 173.447 106.296 175.225 107.14 177.314C107.94 179.314 109.051 181.358 110.874 182.825C111.452 183.269 111.585 183.18 111.807 182.558C112.074 181.936 112.518 178.558 112.652 177.536C112.785 176.514 112.741 175.314 112.963 174.291C113.407 172.202 113.674 170.069 113.896 167.98C114.207 164.514 114.874 161.092 115.541 157.669C115.985 155.314 116.43 152.914 116.919 150.558C117.319 148.736 117.541 146.825 117.897 145.003C118.252 143.27 119.986 137.625 120.119 137.225C120.208 136.959 120.43 134.959 120.608 134.292C120.83 133.625 121.186 130.603 121.452 128.114C121.452 128.025 121.452 127.892 121.497 127.803C121.497 127.714 121.497 127.625 121.541 127.536C121.541 127.359 121.586 127.181 121.586 127.003C121.586 126.825 121.63 126.692 121.63 126.514C121.63 126.47 121.63 126.47 121.63 126.425C121.63 126.336 121.63 126.248 121.63 126.159C121.63 125.892 121.675 125.67 121.675 125.448C121.675 125.403 121.675 125.403 121.675 125.359C121.675 125.314 121.675 125.27 121.675 125.225C121.675 125.181 121.675 125.092 121.675 125.048C121.675 124.959 121.675 124.87 121.675 124.781C121.675 124.736 121.675 124.692 121.675 124.648C121.675 123.048 121.586 121.448 121.052 119.714C120.341 121.048 119.719 122.203 119.097 123.359C118.386 124.736 117.808 126.203 116.519 127.225C115.319 128.203 113.941 127.936 113.363 126.514C112.518 124.514 111.896 122.381 111.318 120.292C111.318 120.292 111.318 120.248 111.274 120.159C111.274 120.114 111.229 120.07 111.229 120.025C111.229 119.981 111.229 119.981 111.185 119.937C111.185 119.892 111.141 119.803 111.096 119.759C111.096 119.714 111.052 119.67 111.052 119.625C110.918 119.359 110.785 119.003 110.652 118.603C110.652 118.603 110.652 118.559 110.607 118.514C110.607 118.514 110.607 118.514 110.607 118.47C110.607 118.425 110.563 118.337 110.518 118.292C110.474 118.203 110.429 118.07 110.385 117.981C110.296 117.759 110.252 117.537 110.163 117.314C109.852 116.248 109.674 115.092 110.029 114.337C110.207 113.27 112.83 112.07 113.363 111.714C114.785 110.737 116.385 110.248 117.763 109.314C119.319 108.248 121.008 107.359 122.697 106.47C123.63 105.981 124.519 105.803 125.408 106.381C125.453 106.381 125.497 106.426 125.542 106.47C125.586 106.514 125.631 106.514 125.675 106.559C125.719 106.603 125.764 106.603 125.808 106.648C126.119 106.826 126.52 107.137 127.008 107.448C127.142 107.537 127.275 107.626 127.408 107.714C128.031 108.114 128.742 108.603 129.453 109.092C129.675 109.226 129.898 109.403 130.12 109.537C130.475 109.759 130.787 109.981 131.098 110.203C131.409 110.426 131.72 110.603 131.987 110.781C132.609 111.181 133.098 111.537 133.498 111.759C133.587 111.803 133.676 111.848 133.765 111.892C133.809 111.892 133.809 111.937 133.853 111.937C133.898 111.981 133.942 111.981 133.987 112.026C134.076 112.07 134.12 112.114 134.165 112.114C134.165 112.114 134.165 112.114 134.209 112.114C134.342 111.937 141.01 111.803 144.121 111.714C145.988 111.67 147.855 111.848 149.677 111.492C152.033 111.403 154.033 110.292 156.122 109.492C158.611 108.514 161.056 107.581 163.545 106.559C164.523 106.159 165.5 106.292 166.389 106.692C167.989 107.359 169.678 107.759 171.323 108.381C173.012 109.003 174.834 109.27 176.657 109.226C177.901 109.226 178.613 110.248 178.835 111.448C179.101 112.87 178.168 113.625 177.59 114.559C177.057 115.403 174.879 118.737 174.746 119.003C174.701 119.092 174.701 119.181 174.657 119.225C174.612 119.314 174.568 119.403 174.568 119.448C173.901 121.003 173.012 122.381 172.079 123.759C171.056 125.359 170.212 126.692 170.123 126.914C169.901 127.759 169.145 128.114 168.434 128.114C167.856 128.159 167.501 127.492 167.189 126.87C166.434 125.181 166.034 123.403 165.1 121.803C164.7 121.137 164.656 120.159 164.389 119.359C164.167 118.737 163.9 118.737 163.411 119.225C162.789 119.848 162.567 120.514 162.789 121.403C163.367 123.714 164.122 129.67 164.078 130.292C164.3 130.781 166.478 145.803 166.523 148.558C167.234 150.603 168.345 152.825 169.056 154.869C169.101 154.958 169.101 155.003 169.145 155.092C169.234 155.314 170.656 158.869 172.39 163.225C172.568 163.625 172.701 164.025 172.879 164.425C173.057 164.914 173.279 165.403 173.457 165.891C173.679 166.425 173.901 166.958 174.079 167.536C174.257 168.025 174.479 168.514 174.657 169.003C174.879 169.58 175.101 170.114 175.323 170.691C175.723 171.714 176.123 172.691 176.479 173.58C176.523 173.669 176.523 173.714 176.568 173.802C176.657 174.069 176.79 174.38 176.923 174.691C177.368 175.891 177.768 176.869 178.035 177.625C178.124 177.847 178.212 178.114 178.301 178.336C178.435 178.647 178.479 178.869 178.479 178.914C178.479 179.002 178.524 179.047 178.524 179.136C178.524 179.225 178.568 179.314 178.568 179.402C178.613 179.58 178.657 179.847 178.746 180.069C178.746 180.158 178.79 180.247 178.835 180.336C179.19 181.58 179.679 183.18 179.946 183.936C179.99 184.025 179.99 184.069 180.035 184.113C180.035 184.158 180.035 184.158 180.079 184.202C180.079 184.247 180.124 184.336 180.124 184.38C180.124 184.425 180.168 184.469 180.168 184.513C180.168 184.558 180.213 184.602 180.213 184.647V184.691C180.213 184.691 180.213 184.736 180.257 184.736V184.78C180.346 185.047 180.435 185.269 180.524 185.536C180.613 185.802 180.702 186.069 180.79 186.291C181.546 188.425 182.213 190.069 182.302 190.024C183.768 189.269 191.236 179.714 191.725 178.869C192.836 177.136 197.014 168.914 197.547 167.269C197.681 166.825 198.259 164.958 198.214 164.247C198.17 163.758 198.836 160.38 199.014 159.136C199.103 158.425 200.036 148.958 200.036 148.914C200.17 148.425 199.281 140.025 199.325 139.625Z" fill="#999999"/>
<path d="M177.124 114.201L177.123 114.203C176.931 114.507 176.523 115.138 176.073 115.834C175.903 116.097 175.726 116.37 175.553 116.638C175.239 117.124 174.937 117.593 174.705 117.958C174.484 118.304 174.302 118.594 174.254 118.691C174.228 118.743 174.211 118.79 174.199 118.827C174.196 118.835 174.194 118.843 174.192 118.85L174.191 118.851L174.153 118.94C173.637 120.142 172.592 121.887 171.612 123.447C171.101 124.246 170.634 124.981 170.282 125.544C170.106 125.826 169.958 126.067 169.848 126.253C169.748 126.422 169.654 126.584 169.614 126.684L169.603 126.713L169.595 126.743C169.449 127.298 168.954 127.57 168.389 127.57H168.37L168.351 127.571C168.294 127.576 168.203 127.559 168.051 127.377C167.896 127.192 167.755 126.926 167.597 126.611C167.31 125.969 167.078 125.318 166.838 124.648C166.772 124.463 166.705 124.276 166.637 124.088C166.324 123.227 165.978 122.347 165.488 121.507L165.488 121.507L165.485 121.501C165.33 121.244 165.232 120.904 165.139 120.479C165.119 120.389 165.099 120.295 165.079 120.198C165.009 119.863 164.931 119.492 164.819 119.156L164.819 119.156L164.816 119.146C164.752 118.969 164.671 118.792 164.557 118.65C164.436 118.499 164.256 118.36 164.009 118.334C163.778 118.309 163.58 118.393 163.435 118.481C163.288 118.57 163.147 118.693 163.013 118.827C162.66 119.181 162.395 119.572 162.26 120.028C162.124 120.485 162.131 120.967 162.26 121.48C162.541 122.606 162.871 124.649 163.127 126.505C163.254 127.429 163.362 128.299 163.435 128.975C163.459 129.197 163.479 129.397 163.495 129.57C163.475 129.564 163.456 129.558 163.436 129.551L163.407 129.541L163.376 129.535C162.702 129.4 162.312 128.942 161.823 128.231L161.822 128.23C160.6 126.464 159.159 124.869 157.04 123.926C155.285 123.112 153.702 121.914 152.418 120.373C150.871 118.491 150.349 116.127 150.085 113.618L150.085 113.618L150.085 113.612C150.058 113.389 150.007 113.171 149.961 112.979C149.957 112.963 149.953 112.947 149.949 112.931C149.906 112.751 149.868 112.593 149.843 112.437C149.807 112.206 149.806 112.016 149.862 111.842C150.997 111.76 152.045 111.461 153.039 111.095C153.579 110.896 154.108 110.675 154.625 110.457C154.668 110.439 154.711 110.421 154.753 110.403C155.23 110.203 155.697 110.006 156.167 109.826L156.167 109.826L156.171 109.824C156.853 109.557 157.532 109.292 158.21 109.028C160.004 108.328 161.791 107.631 163.601 106.888C164.419 106.554 165.25 106.655 166.051 107.015L166.051 107.015L166.064 107.02C166.886 107.363 167.728 107.636 168.556 107.897C168.647 107.926 168.738 107.954 168.829 107.983C169.569 108.216 170.295 108.444 171.013 108.715L171.013 108.715L171.017 108.717C172.769 109.363 174.653 109.637 176.529 109.592C177.412 109.595 178.006 110.306 178.21 111.405L178.212 111.419L178.215 111.432C178.361 112.031 178.255 112.451 178.048 112.842C177.938 113.05 177.798 113.251 177.635 113.476C177.607 113.515 177.578 113.554 177.548 113.595C177.411 113.781 177.261 113.986 177.124 114.201Z" fill="#999999" stroke="#EDEDED"/>
<path d="M133.493 113.243L133.503 113.23L133.898 113.537C134.197 113.152 134.415 112.602 134.232 112.165L134.209 112.319V112.614H134.209H134.209H134.208H134.208H134.208H134.208H134.207H134.207H134.207H134.207H134.206H134.206H134.206H134.206H134.205H134.205H134.205H134.205H134.204H134.204H134.204H134.204H134.203H134.203H134.203H134.203H134.202H134.202H134.202H134.202H134.201H134.201H134.201H134.201H134.201H134.2H134.2H134.2H134.2H134.199H134.199H134.199H134.199H134.199H134.198H134.198H134.198H134.198H134.197H134.197H134.197H134.197H134.197H134.196H134.196H134.196H134.196H134.196H134.195H134.195H134.195H134.195H134.195H134.194H134.194H134.194H134.194H134.194H134.193H134.193H134.193H134.193H134.193H134.192H134.192H134.192H134.192H134.192H134.191H134.191H134.191H134.191H134.191H134.191H134.19H134.19H134.19H134.19H134.19H134.19H134.189H134.189H134.189H134.189H134.189H134.188H134.188H134.188H134.188H134.188H134.188H134.187H134.187H134.187H134.187H134.187H134.187H134.186H134.186H134.186H134.186H134.186H134.186H134.185H134.185H134.185H134.185H134.185H134.185H134.185H134.184H134.184H134.184H134.184H134.184H134.184H134.184H134.183H134.183H134.183H134.183H134.183H134.183H134.183H134.182H134.182H134.182H134.182H134.182H134.182H134.182H134.181H134.181H134.181H134.181H134.181H134.181H134.181H134.18H134.18H134.18H134.18H134.18H134.18H134.18H134.18H134.179H134.179H134.179H134.179H134.179H134.179H134.179H134.179H134.178H134.178H134.178H134.178H134.178H134.178H134.178H134.178H134.178H134.177H134.177H134.177H134.177H134.177H134.177H134.177H134.177H134.177H134.176H134.176H134.176H134.176H134.176H134.176H134.176H134.176H134.176H134.175H134.175H134.175H134.175H134.175H134.175H134.175H134.175H134.175H134.175H134.174H134.174H134.174H134.174H134.174H134.174H134.174H134.174H134.174H134.174H134.174H134.173H134.173H134.173H134.173H134.173H134.173H134.173H134.173H134.173H134.173H134.173H134.173H134.172H134.172H134.172H134.172H134.172H134.172H134.172H134.172H134.172H134.172H134.172H134.172H134.172H134.171H134.171H134.171H134.171H134.171H134.171H134.171H134.171H134.171H134.171H134.171H134.171H134.171H134.171H134.17H134.17H134.17H134.17H134.17H134.17H134.17H134.17H134.17H134.17H134.17H134.17H134.17H134.17H134.17H134.169H134.169H134.169H134.169H134.169H134.169H134.169H134.169H134.169H134.169H134.169H134.169H134.169H134.169H134.169H134.169H134.169H134.169H134.168H134.168H134.168H134.168H134.168H134.168H134.168H134.168H134.168H134.168H134.168H134.168H134.168H134.168H134.168H134.168H134.168H134.168H134.168H134.168H134.168H134.168H134.167H134.167H134.167H134.167H134.167H134.167H134.167H134.167H134.167H134.167H134.167H134.167H134.167H134.167H134.167H134.167H134.167H134.167H134.167H134.167H134.167H134.167H134.167H134.167H134.167H134.167H134.167H134.166H134.166H134.166H134.166H134.166H134.166H134.166H134.166H134.166H134.166H134.166H134.166H134.166H134.166H134.166H134.166H134.166H134.166H134.166H134.166H134.166H134.166H134.166H134.166H134.166H134.166H134.166H134.166H134.166H134.166H134.166H134.166H134.166H134.166H134.166H134.166H134.166H134.166H134.166H134.166H134.165H134.165H134.165H134.165H134.165H134.165H134.165H134.165H134.165H134.165H134.165H134.165H134.165H134.165H134.165H134.165H134.165H134.165H134.165H134.165H134.165H134.165H134.165H134.165H134.165H134.165H134.165H134.165H134.165H134.165H134.165H134.165H134.165H134.165H134.165H134.165H134.165H134.165H134.165H134.165H134.165H134.165H134.165H134.165H134.165H134.165V112.137L134.157 112.141L134.165 112.114M133.493 113.243L134.165 112.114M133.493 113.243L133.484 113.256C133.329 113.485 133.178 113.712 133.029 113.936C132.258 115.098 131.529 116.195 130.498 117.119C129.881 117.665 129.367 118.31 128.887 118.947C128.786 119.081 128.686 119.214 128.588 119.347C128.21 119.854 127.844 120.344 127.435 120.804L127.433 120.806C127.021 121.275 126.639 121.767 126.266 122.247C126.186 122.351 126.105 122.454 126.026 122.557C125.572 123.138 125.121 123.695 124.61 124.205C123.894 124.921 122.92 125.939 122.063 126.852M133.493 113.243L122.063 126.852M134.165 112.114H134.209L127.886 108.052C130.341 109.702 133.734 111.982 134.165 112.114ZM122.063 126.852C122.137 126.215 122.178 125.646 122.218 125.088L122.218 125.083L122.219 125.065V125.048V125.047V125.047V125.046V125.046V125.045V125.045V125.044V125.043V125.043V125.042V125.042V125.041V125.041V125.04V125.04V125.039V125.039V125.038V125.038V125.037V125.037V125.036V125.036V125.035V125.035V125.034V125.034V125.033V125.033V125.032V125.031V125.031V125.03V125.03V125.029V125.029V125.028V125.028V125.027V125.027V125.026V125.026V125.025V125.025V125.024V125.024V125.023V125.023V125.022V125.022V125.021V125.021V125.02V125.02V125.019V125.018V125.018V125.017V125.017V125.016V125.016V125.015V125.015V125.014V125.014V125.013V125.013V125.012V125.012V125.011V125.011V125.01V125.01V125.009V125.009V125.008V125.008V125.007V125.006V125.006V125.005V125.005V125.004V125.004V125.003V125.003V125.002V125.002V125.001V125.001V125V125V124.999V124.999V124.998V124.998V124.997V124.997V124.996V124.996V124.995V124.995V124.994V124.993V124.993V124.992V124.992V124.991V124.991V124.99V124.99V124.989V124.989V124.988V124.988V124.987V124.987V124.986V124.986V124.985V124.985V124.984V124.984V124.983V124.983V124.982V124.981V124.981V124.98V124.98V124.979V124.979V124.978V124.978V124.977V124.977V124.976V124.976V124.975V124.975V124.974V124.974V124.973V124.973V124.972V124.972V124.971V124.971V124.97V124.97V124.969V124.968V124.968V124.967V124.967V124.966V124.966V124.965V124.965V124.964V124.964V124.963V124.963V124.962V124.962V124.961V124.961V124.96V124.96V124.959V124.959V124.958V124.958V124.957V124.956V124.956V124.955V124.955V124.954V124.954V124.953V124.953V124.952V124.952V124.951V124.951V124.95V124.95V124.949V124.949V124.948V124.948V124.947V124.947V124.946V124.946V124.945V124.945V124.944V124.943V124.943V124.942V124.942V124.941V124.941V124.94V124.94V124.939V124.939V124.938V124.938V124.937V124.937V124.936V124.936V124.935V124.935V124.934V124.934V124.933V124.933V124.932V124.931V124.931V124.93V124.93V124.929V124.929V124.928V124.928V124.927V124.927V124.926V124.926V124.925V124.925V124.924V124.924V124.923V124.923V124.922V124.922V124.921V124.921V124.92V124.92V124.919V124.918V124.918V124.917V124.917V124.916V124.916V124.915V124.915V124.914V124.914V124.913V124.913V124.912V124.912V124.911V124.911V124.91V124.91V124.909V124.909V124.908V124.908V124.907V124.906V124.906V124.905V124.905V124.904V124.904V124.903V124.903V124.902V124.902V124.901V124.901V124.9V124.9V124.899V124.899V124.898V124.898V124.897V124.897V124.896V124.896V124.895V124.895V124.894V124.893V124.893V124.892V124.892V124.891V124.891V124.89V124.89V124.889V124.889V124.888V124.888V124.887V124.887V124.886V124.886V124.885V124.885V124.884V124.884V124.883V124.883V124.882V124.881V124.881V124.88V124.88V124.879V124.879V124.878V124.878V124.877V124.877V124.876V124.876V124.875V124.875V124.874V124.874V124.873V124.873V124.872V124.872V124.871V124.871V124.87V124.87V124.869V124.868V124.868V124.867V124.867V124.866V124.866V124.865V124.865V124.864V124.864V124.863V124.863V124.862V124.862V124.861V124.861V124.86V124.86V124.859V124.859V124.858V124.858V124.857V124.856V124.856V124.855V124.855V124.854V124.854V124.853V124.853V124.852V124.852V124.851V124.851V124.85V124.85V124.849V124.849V124.848V124.848V124.847V124.847V124.846V124.846V124.845V124.845V124.844V124.843V124.843V124.842V124.842V124.841V124.841V124.84V124.84V124.839V124.839V124.838V124.838V124.837V124.837V124.836V124.836V124.835V124.835V124.834V124.834V124.833V124.833V124.832V124.831V124.831V124.83V124.83V124.829V124.829V124.828V124.828V124.827V124.827V124.826V124.826V124.825V124.825V124.824V124.824V124.823V124.823V124.822V124.822V124.821V124.821V124.82V124.82V124.819V124.818V124.818V124.817V124.817V124.816V124.816V124.815V124.815V124.814V124.814V124.813V124.813V124.812V124.812V124.811V124.811V124.81V124.81V124.809V124.809V124.808V124.808V124.807V124.806V124.806V124.805V124.805V124.804V124.804V124.803V124.803V124.802V124.802V124.801V124.801V124.8V124.8V124.799V124.799V124.798V124.798V124.797V124.797V124.796V124.796V124.795V124.795V124.794V124.793V124.793V124.792V124.792V124.791V124.791V124.79V124.79V124.789V124.789V124.788V124.788V124.787V124.787V124.786V124.786V124.785V124.785V124.784V124.784V124.783V124.783V124.782V124.781V124.781V124.781V124.78V124.78V124.78V124.78V124.779V124.779V124.779V124.779V124.778V124.778V124.778V124.778V124.777V124.777V124.777V124.777V124.776V124.776V124.776V124.776V124.775V124.775V124.775V124.774V124.774V124.774V124.774V124.773V124.773V124.773V124.773V124.772V124.772V124.772V124.772V124.771V124.771V124.771V124.771V124.77V124.77V124.77V124.77V124.769V124.769V124.769V124.768V124.768V124.768V124.768V124.767V124.767V124.767V124.767V124.766V124.766V124.766V124.766V124.765V124.765V124.765V124.765V124.764V124.764V124.764V124.764V124.763V124.763V124.763V124.762V124.762V124.762V124.762V124.761V124.761V124.761V124.761V124.76V124.76V124.76V124.76V124.759V124.759V124.759V124.759V124.758V124.758V124.758V124.758V124.757V124.757V124.757V124.756V124.756V124.756V124.756V124.755V124.755V124.755V124.755V124.754V124.754V124.754V124.754V124.753V124.753V124.753V124.753V124.752V124.752V124.752V124.752V124.751V124.751V124.751V124.751V124.75V124.75V124.75V124.749V124.749V124.749V124.749V124.748V124.748V124.748V124.748V124.747V124.747V124.747V124.747V124.746V124.746V124.746V124.746V124.745V124.745V124.745V124.745V124.744V124.744V124.744V124.743V124.743V124.743V124.743V124.742V124.742V124.742V124.742V124.741V124.741V124.741V124.741V124.74V124.74V124.74V124.74V124.739V124.739V124.739V124.739V124.738V124.738V124.738V124.737V124.737V124.737V124.737V124.736V124.736V124.736V124.736V124.735V124.735V124.735V124.735V124.734V124.734V124.734V124.734V124.733V124.733V124.733V124.733V124.732V124.732V124.732V124.731V124.731V124.731V124.731V124.73V124.73V124.73V124.73V124.729V124.729V124.729V124.729V124.728V124.728V124.728V124.728V124.727V124.727V124.727V124.727V124.726V124.726V124.726V124.726V124.725V124.725V124.725V124.724V124.724V124.724V124.724V124.723V124.723V124.723V124.723V124.722V124.722V124.722V124.722V124.721V124.721V124.721V124.721V124.72V124.72V124.72V124.72V124.719V124.719V124.719V124.718V124.718V124.718V124.718V124.717V124.717V124.717V124.717V124.716V124.716V124.716V124.716V124.715V124.715V124.715V124.715V124.714V124.714V124.714V124.714V124.713V124.713V124.713V124.712V124.712V124.712V124.712V124.711V124.711V124.711V124.711V124.71V124.71V124.71V124.71V124.709V124.709V124.709V124.709V124.708V124.708V124.708V124.708V124.707V124.707V124.707V124.706V124.706V124.706V124.706V124.705V124.705V124.705V124.705V124.704V124.704V124.704V124.704V124.703V124.703V124.703V124.703V124.702V124.702V124.702V124.702V124.701V124.701V124.701V124.701V124.7V124.7V124.7V124.699V124.699V124.699V124.699V124.698V124.698V124.698V124.698V124.697V124.697V124.697V124.697V124.696V124.696V124.696V124.696V124.695V124.695V124.695V124.695V124.694V124.694V124.694V124.693V124.693V124.693V124.693V124.692V124.692V124.692V124.692V124.691V124.691V124.691V124.691V124.69V124.69V124.69V124.69V124.689V124.689V124.689V124.689V124.688V124.688V124.688V124.687V124.687V124.687V124.687V124.686V124.686V124.686V124.686V124.685V124.685V124.685V124.685V124.684V124.684V124.684V124.684V124.683V124.683V124.683V124.683V124.682V124.682V124.682V124.681V124.681V124.681V124.681V124.68V124.68V124.68V124.68V124.679V124.679V124.679V124.679V124.678V124.678V124.678V124.678V124.677V124.677V124.677V124.677V124.676V124.676V124.676V124.676V124.675V124.675V124.675V124.674V124.674V124.674V124.674V124.673V124.673V124.673V124.673V124.672V124.672V124.672V124.672V124.671V124.671V124.671V124.671V124.67V124.67V124.67V124.67V124.669V124.669V124.669V124.668V124.668V124.668V124.668V124.667V124.667V124.667V124.667V124.666V124.666V124.666V124.666V124.665V124.665V124.665V124.665V124.664V124.664V124.664V124.664V124.663V124.663V124.663V124.662V124.662V124.662V124.662V124.661V124.661V124.661V124.661V124.66V124.66V124.66V124.66V124.659V124.659V124.659V124.659V124.658V124.658V124.658V124.658V124.657V124.657V124.657V124.656V124.656V124.656V124.656V124.655V124.655V124.655V124.655V124.654V124.654V124.654V124.654V124.653V124.653V124.653V124.653V124.652V124.652V124.652V124.652V124.651V124.651V124.651V124.651V124.65V124.65V124.65V124.649V124.649V124.649V124.649V124.648V124.648V124.648V124.648C122.219 123.029 122.13 121.371 121.575 119.567L121.221 118.419L120.656 119.479C119.945 120.811 119.324 121.966 118.701 123.121L118.701 123.122L118.701 123.122L118.697 123.129C118.575 123.365 118.459 123.598 118.346 123.826C117.765 124.994 117.24 126.05 116.253 126.834L116.253 126.834L116.247 126.838C115.735 127.255 115.241 127.364 114.857 127.281C114.482 127.2 114.11 126.915 113.871 126.326L113.871 126.326L113.868 126.32C113.042 124.363 112.429 122.269 111.854 120.191C111.851 120.174 111.847 120.156 111.842 120.138C111.832 120.096 111.817 120.051 111.797 120.003C111.791 119.982 111.785 119.964 111.78 119.95C111.775 119.939 111.771 119.928 111.767 119.918C111.76 119.872 111.745 119.816 111.716 119.757C111.705 119.736 111.694 119.717 111.683 119.701C111.67 119.668 111.658 119.641 111.649 119.624C111.628 119.583 111.6 119.533 111.563 119.485C111.401 119.153 111.2 118.667 111.037 118.178L111.026 118.145L111.01 118.113C110.999 118.091 110.985 118.057 110.96 117.995L110.957 117.988C110.94 117.944 110.915 117.882 110.887 117.824C110.855 117.742 110.829 117.656 110.797 117.548L110.795 117.541C110.765 117.441 110.729 117.321 110.681 117.197C110.534 116.69 110.424 116.179 110.389 115.716C110.353 115.239 110.401 114.861 110.526 114.594L110.556 114.531L110.567 114.463C110.584 114.361 110.682 114.181 110.941 113.932C111.186 113.697 111.517 113.456 111.877 113.224C112.235 112.994 112.607 112.784 112.929 112.606C112.985 112.575 113.042 112.544 113.097 112.513C113.339 112.38 113.558 112.26 113.685 112.175L113.685 112.175L113.691 112.171C114.366 111.707 115.087 111.356 115.841 110.993C115.861 110.983 115.88 110.974 115.9 110.964C116.625 110.615 117.382 110.251 118.088 109.773L118.088 109.773L118.091 109.771C119.618 108.724 121.28 107.849 122.974 106.957C123.838 106.505 124.513 106.411 125.18 106.845L125.272 106.905C125.327 106.951 125.378 106.98 125.408 106.995C125.457 107.037 125.504 107.065 125.534 107.081L125.535 107.082L125.578 107.11C126.042 107.416 126.768 107.903 127.604 108.465C128.411 109.007 129.321 109.619 130.198 110.203C131.088 110.795 131.941 111.357 132.61 111.783C132.944 111.995 133.235 112.176 133.462 112.31C133.576 112.377 133.678 112.435 133.763 112.48C133.775 112.486 133.787 112.492 133.799 112.498L122.063 126.852ZM125.568 107.098C125.568 107.098 125.567 107.098 125.566 107.097C125.568 107.098 125.568 107.098 125.568 107.098ZM125.435 107.009C125.435 107.009 125.434 107.009 125.432 107.008C125.434 107.009 125.435 107.009 125.435 107.009Z" fill="#999999" stroke="#EDEDED"/>
<path d="M133.987 111.892C133.853 111.848 133.72 111.759 133.542 111.625C133.72 111.759 133.853 111.848 133.987 111.892Z" fill="#2D2C2A"/>
<path d="M110.518 118.248C110.74 118.781 110.963 119.314 111.096 119.67C110.963 119.359 110.74 118.825 110.518 118.248Z" fill="#2D2C2A"/>
<path d="M135.063 147.535L135.063 147.535L135.063 147.53C135.084 147.256 135.124 147.062 135.18 146.939C135.227 146.838 135.259 146.832 135.284 146.827L135.285 146.827L135.308 146.822L135.33 146.815C135.424 146.787 135.576 146.789 135.749 146.854C135.918 146.918 136.063 147.026 136.154 147.154C136.887 148.231 137.743 149.177 138.579 150.09C138.617 150.132 138.655 150.173 138.693 150.215C139.496 151.091 140.275 151.942 140.954 152.888C140.984 152.932 141.016 152.974 141.039 153.005L141.042 153.009C141.068 153.043 141.087 153.068 141.104 153.093C141.139 153.144 141.146 153.164 141.147 153.169L141.152 153.189L141.159 153.21C141.418 153.964 141.742 154.492 142.303 154.781C142.819 155.046 143.459 155.058 144.165 155.058H144.173L144.18 155.058C144.843 155.038 145.497 154.94 146.116 154.848C146.217 154.833 146.317 154.818 146.416 154.803C147.135 154.698 147.813 154.616 148.491 154.657L148.491 154.658L148.497 154.658C149.342 154.698 150.224 154.473 150.998 154.276C151.163 154.234 151.323 154.194 151.476 154.157C152.411 153.957 153.331 153.662 154.223 153.376C154.544 153.273 154.861 153.171 155.174 153.075C156.253 152.745 157.312 152.475 158.413 152.407C158.423 152.47 158.434 152.542 158.445 152.622C158.497 152.998 158.552 153.517 158.602 154.09C158.701 155.24 158.778 156.579 158.778 157.403C158.778 158.178 158.713 158.969 158.641 159.781C158.634 159.856 158.627 159.931 158.62 160.007C158.555 160.74 158.487 161.491 158.467 162.233L158.466 162.233V162.247C158.466 163.181 158.42 163.969 158.006 164.625C157.588 164.587 157.269 164.451 157.001 164.248C156.671 163.999 156.39 163.624 156.117 163.12L156.117 163.12L156.111 163.11C155.783 162.535 155.562 161.92 155.346 161.268C155.316 161.177 155.286 161.085 155.256 160.993C155.073 160.433 154.881 159.844 154.62 159.281L154.617 159.275L154.613 159.268C154.491 159.024 154.383 158.779 154.269 158.521C154.199 158.363 154.127 158.199 154.048 158.027C153.85 157.596 153.621 157.147 153.323 156.749C152.45 155.57 151.09 155.091 149.775 154.95L149.767 154.949L149.76 154.949C149.138 154.901 148.478 154.949 147.905 154.993L147.904 154.993C147.19 155.05 146.688 155.389 146.341 155.843C146.012 156.273 145.824 156.8 145.689 157.252C145.08 159.073 144.002 160.518 142.647 161.861C142.058 161.803 141.474 161.718 140.878 161.632C140.535 161.582 140.188 161.532 139.833 161.485C138.628 161.31 137.628 161.631 136.744 162.135C136.147 162.476 135.579 162.919 135.038 163.35C134.813 161.592 134.62 160.082 134.62 158.474C134.637 157.456 134.621 156.437 134.605 155.43C134.601 155.13 134.596 154.832 134.592 154.535C134.576 153.234 134.576 151.952 134.663 150.685C134.706 150.171 134.781 149.654 134.859 149.126C134.861 149.111 134.864 149.095 134.866 149.08C134.941 148.57 135.018 148.049 135.063 147.535Z" fill="#999999" stroke="#EDEDED"/>
<path d="M169.99 163.98C169.945 164.203 169.901 164.425 169.812 164.647C169.767 164.869 169.723 165.091 169.678 165.314C169.634 165.447 168.523 167.803 167.989 168.336C167.945 168.38 166.967 169.269 166.567 169.491C165.189 170.247 163.811 169.625 162.656 169.225C160.7 168.558 159.055 167.225 158.3 165.091C158.967 164.247 158.967 163.225 159.011 162.203C159.055 160.603 159.322 158.958 159.322 157.358C159.322 155.669 158.967 151.936 158.833 151.847C159.411 149.403 160.033 146.958 160.611 144.514C160.7 144.158 160.967 143.492 161.278 143.092C161.367 142.958 161.589 142.914 161.722 142.958C162.3 143.225 162.878 143.67 163.278 144.247C164.167 145.581 165.545 146.914 166.523 148.558C166.612 148.692 168.434 152.958 169.145 155.047C169.19 155.136 169.767 158.558 169.945 159.98C170.123 161.225 169.99 163.936 169.99 163.98Z" fill="#999999"/>
<path d="M180.79 186.336C180.746 186.336 178.835 188.647 176.39 187.091C176.079 186.913 175.768 186.913 175.457 186.78C173.412 185.936 172.834 184.158 172.567 182.247C172.345 180.691 172.301 179.091 172.167 177.491C171.945 174.825 174.256 172.691 176.523 173.58C176.968 174.736 178.079 177.536 178.524 178.914C178.835 179.936 179.857 183.447 180.079 184.247C180.301 185.002 180.524 185.58 180.79 186.336Z" fill="#999999"/>
<path d="M148.166 145.625C147.543 145.447 147.188 145.27 147.188 144.692C147.188 144.292 147.366 143.936 147.899 144.025C149.543 144.203 151.233 144.647 152.833 144.425C154.877 144.159 157.011 143.847 158.655 142.247C159.989 140.959 159.9 139.714 159.9 137.892C157.855 139.181 156.655 137.936 155.099 136.781C154.833 136.603 154.611 136.381 154.344 136.203C153.544 135.625 152.922 134.959 153.144 133.892C153.322 132.825 154.211 132.292 155.144 132.114C156.789 131.803 158.433 131.359 160.122 131.448C160.344 131.448 160.522 131.403 160.7 131.581C161.589 132.381 162.033 134.559 161.678 135.759C161.367 136.87 161.5 138.025 161.589 139.136C161.722 140.647 161.011 141.803 160.078 142.825C159.144 143.892 158.211 145.047 156.7 145.403C153.944 146.07 150.388 146.292 148.166 145.625Z" fill="#999999"/>
<path d="M137.187 182.114C139.142 182.691 140.965 183.314 142.876 183.802C144.032 184.113 144.521 185.047 144.921 185.936C145.499 187.313 145.943 188.78 146.032 190.291C146.121 192.024 144.298 194.113 142.165 194.558C141.809 194.647 141.498 194.736 141.143 194.824C140.387 195.002 139.943 194.736 139.809 193.936C139.231 191.091 138.742 188.202 137.765 185.447C137.409 184.38 137.32 183.269 137.187 182.114Z" fill="#999999"/>
<path d="M134.654 164.292C136.165 163.092 137.632 161.625 139.81 161.936C140.832 162.069 141.854 162.247 142.876 162.336C142.476 164.603 141.276 166.469 139.898 168.247C139.321 169.003 137.632 171.58 137.232 172.069C136.787 172.336 136.298 172.603 135.854 172.869C135.187 171.003 134.876 165.892 134.654 164.292Z" fill="#999999"/>
<path d="M156.922 171.58C155.588 173.358 154.522 173.403 152.344 172.336C151.81 172.069 151.499 171.536 151.721 171.136C151.988 170.692 152.61 170.514 153.144 171.047C153.722 171.625 154.388 171.625 155.1 171.358C155.544 171.18 155.766 170.78 155.766 170.247C155.766 169.847 155.677 169.492 155.277 169.447C154.744 169.358 154.299 169.092 154.433 168.603C154.566 167.98 154.611 167.269 155.322 166.914C156.122 166.514 156.877 166.558 157.544 167.092C158.211 167.625 157.944 168.469 157.766 169.003C157.544 169.714 157.678 170.025 158.211 170.38C159.278 171.091 159.9 170.247 159.811 169.403C159.767 168.469 161.411 168.692 161.367 169.58C161.233 171.669 158.967 172.825 157.277 171.758C157.189 171.714 157.055 171.669 156.922 171.58Z" fill="#999999"/>
<path d="M178.435 166.514C177.323 166.736 176.212 167.003 175.101 167.269C173.901 167.625 172.567 167.536 171.367 167.936C170.745 168.158 169.945 168.025 169.234 167.936C168.745 167.892 167.234 168.158 166.834 168.514C166.656 168.691 165.989 168.869 165.767 168.336C165.589 167.847 165.9 167.625 166.345 167.403C167.545 166.869 176.879 165.18 178.123 164.958C178.701 164.869 179.368 164.647 179.546 165.314C179.724 165.98 179.146 166.38 178.435 166.514Z" fill="#999999"/>
<path d="M178.301 170.291C177.635 170.603 174.835 170.647 174.212 170.691C172.523 170.869 170.834 170.291 169.145 170.958C168.567 171.225 167.812 170.869 167.101 170.958C166.834 171.003 166.256 171.358 166.256 170.78C166.256 170.38 166.478 169.891 167.056 169.803C167.278 169.758 167.767 169.758 167.945 169.669C170.523 168.914 177.19 168.869 177.99 168.914C178.39 168.958 178.879 168.825 178.924 169.314C179.013 169.758 178.746 170.114 178.301 170.291Z" fill="#999999"/>
<path d="M145.721 173.536C144.61 173.847 144.121 174.469 143.188 174.691C142.076 174.958 141.054 175.714 140.076 176.291C138.609 177.136 136.965 177.714 135.765 179.002C135.365 179.402 134.654 179.447 134.387 178.958C134.076 178.38 134.431 177.669 135.054 177.402C136.52 176.736 137.854 175.714 139.276 175.047C140.61 174.469 141.854 173.491 143.454 173.491C144.165 173.491 144.61 172.691 145.499 172.869C146.166 173.002 146.077 173.447 145.721 173.536Z" fill="#999999"/>
<path d="M135.854 172.869C136.298 172.603 142.699 170.958 144.076 170.691C144.61 170.603 145.054 170.558 145.499 170.825C145.677 170.914 145.677 171.18 145.543 171.269C144.788 171.936 143.721 171.936 142.832 172.291C141.321 172.869 139.676 173.136 138.076 173.447C137.276 173.58 136.831 174.38 135.987 174.469C135.409 174.558 134.92 174.736 134.654 174.158C134.387 173.536 135.054 173.358 135.454 173.136C135.542 173.047 135.676 172.958 135.854 172.869Z" fill="#999999"/>
<path d="M155.499 129.359C155.011 129.492 154.477 129.892 154.077 129.314C153.633 128.736 153.855 127.981 154.21 127.536C155.455 125.936 157.277 125.448 159.189 126.648C159.633 126.914 159.944 128.381 159.544 128.736C158.744 129.448 158.344 128.692 157.055 128.025C156.744 127.848 156.255 128.114 156.122 128.648C156.077 128.87 155.588 129.314 155.499 129.359Z" fill="#999999"/>
<path d="M139.587 126.381C140.521 126.336 141.276 127.314 142.032 128.159C142.521 128.736 142.121 129.447 141.632 129.847C141.187 130.203 140.698 129.936 140.298 129.625C140.21 129.581 140.165 129.447 140.121 129.403C138.832 128.247 138.476 128.292 137.365 129.67C137.232 129.847 137.054 130.159 136.787 129.981C136.343 129.714 136.165 129.181 136.254 128.692C136.343 127.803 138.209 126.336 139.587 126.381Z" fill="#999999"/>
<path d="M137.72 181.225C137.454 181.18 137.098 180.914 137.409 180.336C137.676 179.802 138.165 179.536 138.698 179.18C139.632 178.602 140.698 178.336 141.454 177.358C142.165 176.469 143.276 175.936 144.299 175.358C145.143 174.914 145.365 175.58 144.788 176.069C143.365 177.402 141.943 178.736 140.432 179.936C139.721 180.558 139.009 181.225 137.72 181.225Z" fill="#999999"/>
<path d="M150.033 166.336C150.166 167.18 148.388 168.78 147.41 168.958C146.477 169.136 144.877 168.291 144.477 167.403C144.254 166.914 144.388 166.558 144.699 166.336C145.01 166.114 145.366 166.38 145.588 166.647C146.121 167.314 146.743 167.625 147.588 167.136C148.032 166.869 148.299 166.603 148.299 166.114C148.299 165.536 148.344 164.869 149.055 164.914C149.855 164.914 149.944 165.669 150.033 166.336Z" fill="#999999"/>
<path d="M178.568 162.78C177.768 163.18 176.924 163.314 175.99 163.58C175.235 163.803 171.056 164.736 169.679 165.314C168.701 165.536 167.723 165.758 166.789 166.069C166.567 166.158 166.345 166.425 166.078 166.425C165.856 166.38 165.989 166.114 165.945 165.98C165.856 165.58 166.078 165.358 166.434 165.269C167.723 164.958 172.257 163.136 173.412 162.958C174.746 162.647 176.079 162.292 177.457 161.98C177.768 161.892 178.079 161.936 178.39 161.936C178.613 161.936 178.835 162.025 178.879 162.247C178.879 162.514 178.79 162.692 178.568 162.78Z" fill="#999999"/>
<path d="M163.189 165.536C161.633 165.669 160.833 164.558 160.033 163.536C159.9 163.358 160.033 163.047 160.122 162.869C160.522 162.114 161.767 163.269 162.122 163.625C162.745 164.203 163.145 164.069 163.322 163.314C163.545 162.469 164.034 162.203 164.834 162.336C165.1 162.38 165.278 162.514 165.234 162.78C165.1 163.714 164.567 165.358 163.189 165.536Z" fill="#EDEDED"/>
<path d="M233.239 118.203C233.195 122.025 233.195 125.847 233.106 129.67C233.061 131.27 233.195 132.87 234.084 134.292C234.928 135.67 236.039 135.892 237.328 134.825C238.484 133.847 239.017 132.603 239.151 131.092C239.684 125.981 239.551 120.825 239.906 115.67C240.04 113.67 240.218 111.625 239.906 109.625C239.595 107.803 239.729 105.937 239.551 104.159C239.417 102.648 241.462 101.892 242.662 102.337C243.018 102.47 243.24 102.826 243.24 103.27C243.24 107.314 243.462 111.403 243.151 115.448C242.751 120.114 243.018 124.781 242.351 129.403C241.951 132.07 241.195 134.603 238.973 136.425C238.129 137.136 237.106 137.447 236.128 137.625C234.395 137.936 232.661 137.981 231.15 136.781C230.528 136.247 230.039 136.336 229.506 136.87C226.928 139.447 222.75 139.047 220.349 136.825C219.105 135.67 218.349 134.203 217.727 132.603C216.882 130.381 216.927 128.025 216.838 125.714C216.705 121.936 217.194 118.248 217.371 114.47C217.505 111.981 217.816 109.492 218.26 107.048C218.571 105.581 218.705 103.981 219.46 102.603C219.638 102.248 219.905 102.159 220.26 102.203C221.905 102.292 222.616 102.87 223.283 104.426C223.594 105.137 223.638 105.803 223.638 106.514C223.638 109.359 223.816 112.159 223.816 115.003C223.772 119.67 223.55 124.336 223.638 129.003C223.638 129.714 223.638 130.381 223.683 131.092C223.772 132.514 224.127 133.892 225.061 135.047C226.039 136.292 227.239 136.47 228.128 134.736C228.528 133.981 228.75 133.136 228.706 132.247C228.617 131.047 228.617 129.803 228.661 128.559C228.928 122.959 229.194 117.359 229.461 111.759C229.55 109.359 229.595 106.959 229.595 104.559C229.595 103.981 229.817 103.537 230.128 103.092C230.795 102.337 231.906 102.559 232.35 103.448C233.106 104.959 233.284 106.514 233.239 108.159C233.195 111.537 233.239 114.87 233.239 118.203Z" fill="#999999"/>
<path d="M296 114.248C296 113.403 295.822 112.514 295.911 111.67C296.089 109.581 295.822 107.581 294.622 105.803C293.733 104.47 292.577 103.359 291.066 102.781C288.532 101.892 285.954 102.026 283.376 102.737C282.754 102.914 282.399 103.314 282.399 104.026C282.31 108.692 281.91 113.314 281.599 117.981C281.332 122.336 281.287 126.736 281.065 131.136C280.976 132.514 281.199 133.936 280.932 135.27C280.665 136.603 280.621 137.892 280.976 139.181C281.11 139.714 281.332 140.025 281.865 140.203C282.976 140.514 284.177 140.558 285.288 140.958C286.088 141.225 286.888 141.536 287.421 141.447C289.421 141.358 290.799 140.603 292.31 139.892C295.022 138.603 295.955 133.314 296 131.981C296.133 126.07 296.044 120.159 296 114.248ZM288.666 134.958C288.444 136.558 287.243 137.625 285.732 138.158C285.065 138.381 284.665 138.114 284.665 137.447C284.71 135.225 284.488 133.003 284.977 130.825C285.021 130.647 285.065 130.425 285.065 130.203C285.11 125.403 285.821 120.648 285.599 115.848C285.51 114.025 285.554 112.159 285.821 110.337C285.954 109.403 285.599 108.47 285.599 107.537C285.599 106.737 285.954 106.07 286.088 105.314C286.177 104.914 286.977 104.87 287.421 105.226C287.866 105.537 288.088 106.07 288.177 106.514C288.355 107.359 288.755 108.159 288.755 109.048C288.71 112.292 288.666 115.537 288.799 118.781C288.844 122.603 288.666 126.425 289.066 130.247C289.244 131.759 288.888 133.358 288.666 134.958Z" fill="#999999"/>
<path d="M315.601 114.959C315.601 113.181 314.579 107.27 314.268 106.292C313.823 105.003 313.423 103.625 312.045 103.003C310.223 102.159 308.312 101.714 306.267 101.714C305.823 101.714 305.512 101.937 305.245 102.292C304.089 103.892 303.334 105.714 302.845 107.625C302.667 108.248 302.4 108.87 302.222 109.492C301.956 110.292 301.511 112.025 301.511 112.07C301.378 113.003 301.111 113.936 300.889 114.825C300.711 115.536 299.867 119.536 299.733 120.825C299.556 122.425 299.689 124.07 299.689 125.714C299.822 128.025 299.467 130.336 300 132.647C300.311 134.069 300.444 135.581 300.978 137.003C301.556 138.603 302.4 139.936 303.6 141.092C304.4 141.847 305.289 142.069 306.267 141.758C307.423 141.403 308.534 141.225 309.734 141.136C310.801 141.047 311.468 140.469 311.956 139.536C312.534 138.469 313.023 137.403 313.468 136.247C314.001 134.914 314.357 133.536 314.579 132.203C314.801 131.003 316.046 125.981 316.001 123.536C315.957 120.647 315.557 117.803 315.601 114.959ZM311.868 122.603C311.734 124.692 311.512 126.736 311.156 128.781C310.979 130.025 310.712 131.27 310.534 132.514C310.356 133.581 310.223 134.692 309.779 135.758C309.556 136.292 309.556 136.914 309.245 137.492C309.023 137.892 308.934 138.381 308.445 138.381C307.912 138.381 307.601 137.892 307.423 137.447C306.401 135.181 306.312 132.736 306.089 130.336C305.912 128.736 306.045 127.092 306.045 125.447C306.045 124.025 306 122.603 306.045 121.181C306.134 119.003 306.356 116.825 306.578 114.648C306.756 112.959 306.845 111.181 307.423 109.581C307.778 108.514 308.001 107.359 308.578 106.337C308.801 105.937 308.712 105.448 309.067 105.048C309.201 104.87 309.156 104.559 309.467 104.603C309.779 104.648 309.912 104.914 310.045 105.137C310.534 106.025 310.712 107.092 310.845 108.025C311.023 109.181 311.379 110.292 311.379 111.492C311.601 115.136 312.179 118.87 311.868 122.603Z" fill="#999999"/>
<path d="M264.175 131.625C264.131 129.136 263.908 126.647 264.22 124.203C264.575 121.314 264.486 118.381 264.975 115.537C265.064 115.092 265.064 114.692 265.064 114.248C264.931 111.27 265.331 108.292 265.642 105.359C265.775 104.159 265.82 102.87 266.353 101.714C266.486 101.403 266.442 101.003 266.486 100.648C266.575 99.8478 267.02 99.4034 267.82 99.5367C269.998 99.8923 271.82 101.27 271.953 103.759C272.131 106.914 272.353 110.07 272.62 113.225C272.798 115.27 272.487 117.27 272.442 119.27C272.398 121.67 270.531 137.358 270.531 138.025C270.576 138.914 270.753 139.181 271.687 139.181C273.376 139.181 275.109 138.958 276.798 139.092C277.509 139.136 278.176 139.27 278.798 139.492C279.821 139.892 280.087 141.003 279.243 141.758C278.487 142.469 277.509 142.47 276.576 142.558C275.865 142.603 275.154 142.558 274.443 142.514C273.198 142.425 271.953 142.469 270.709 142.647C269.153 142.825 267.598 143.047 266.042 142.381C264.886 141.892 264.175 140.958 264.175 139.714C264.175 137.003 264.175 134.292 264.175 131.625Z" fill="#999999"/>
<path d="M260.975 127.581C260.664 125.581 260.175 118.336 260.13 116.736C260.13 113.892 259.73 111.092 259.552 108.248C259.464 107.137 259.775 106.025 259.552 104.959C259.33 103.892 259.464 102.559 258.175 102.026C257.374 101.714 256.53 101.537 255.685 101.359C254.53 101.137 254.308 101.226 253.819 102.248C253.641 102.603 253.463 102.959 253.33 103.359C252.796 104.914 252.396 106.514 251.818 108.07C251.596 108.648 251.507 109.27 251.285 109.848C250.93 110.781 250.618 111.759 250.574 112.781C250.485 113.848 250.218 114.914 249.952 115.892C249.463 117.581 249.24 119.314 248.796 120.959C248.574 121.803 248.352 122.692 248.129 123.581C247.863 124.736 247.729 125.981 247.329 127.092C247.018 127.981 246.974 128.914 246.751 129.847C246.44 131.27 246.085 132.692 245.996 134.158C245.951 134.825 246.351 135.225 246.929 135.358C247.507 135.492 248.129 135.536 248.752 135.536C249.641 135.536 249.996 135.047 250.129 134.203C250.307 133.092 250.485 131.936 250.663 130.825C250.93 129.27 251.418 127.759 251.507 126.159C251.552 124.87 252.13 124.381 253.419 124.425C253.996 124.425 254.53 124.47 255.108 124.514C255.73 124.559 256.041 124.87 256.041 125.581C255.997 126.914 256.041 128.247 256.041 129.581C255.952 130.914 255.908 132.247 255.997 133.581C256.085 134.914 257.063 135.847 258.397 135.803C258.975 135.803 259.508 135.714 260.041 135.581C261.33 135.27 261.419 135.092 261.464 133.803C261.553 131.758 261.286 129.67 260.975 127.581ZM255.819 121.714C255.063 122.247 254.041 122.381 253.107 122.203C252.707 122.114 252.707 121.67 252.707 121.314C252.752 119.67 253.152 118.07 253.596 116.47C253.641 116.336 254.041 113.359 254.219 112.025C254.441 110.514 255.063 109.048 255.508 107.537C255.552 107.448 255.641 107.359 255.685 107.314C255.863 107.314 255.863 107.448 255.908 107.581C255.908 107.803 255.952 107.981 255.952 108.203C255.952 109.848 255.997 113.092 255.997 113.092C255.997 114.248 255.997 115.448 255.997 116.603C255.997 117.581 255.997 118.603 256.263 119.581C256.486 120.381 256.486 121.225 255.819 121.714Z" fill="#999999"/>
<path d="M343.781 133.225C343.292 134.425 342.625 135.581 342.003 136.736C341.603 137.447 340.892 137.936 340.181 138.292C338.403 139.181 336.447 139.625 334.491 139.581C332.58 139.492 330.624 138.825 329.913 136.914C329.247 135.047 329.069 132.958 330.136 131.092C330.713 130.025 332.358 129.492 333.38 129.936C334.225 130.292 334.714 131.314 334.269 132.114C333.647 133.225 333.869 134.381 334.091 135.536C334.225 136.247 335.069 136.603 336.047 136.292C336.981 135.981 338.003 135.67 338.492 134.558C338.625 134.292 338.803 132.247 338.714 131.67C338.492 130.381 338.181 129.092 337.914 127.847C337.558 126.159 336.936 124.603 336.358 123.047C335.869 121.714 335.247 120.425 334.758 119.092C334.225 117.714 333.647 116.381 333.202 114.959C332.802 113.714 332.402 112.47 332.091 111.225C331.736 109.848 331.291 108.47 331.736 106.87C332.225 105.137 333.114 104.026 334.491 103.181C335.958 102.248 337.603 101.981 339.292 102.337C340.536 102.603 341.825 103.003 342.403 104.381C342.492 104.559 342.581 104.737 342.581 104.959C342.714 106.159 342.714 107.359 342.581 108.559C342.492 109.27 342.092 109.803 341.514 110.159C341.114 110.425 340.625 110.337 340.136 110.114C339.336 109.759 339.514 107.759 339.514 107.537C339.558 106.781 339.292 106.159 339.114 105.448C338.936 104.87 338.447 104.692 337.914 104.648C337.381 104.603 336.936 104.87 336.758 105.359C336.269 106.514 336.136 107.581 336.58 108.87C337.558 111.803 339.114 114.381 340.67 117.003C341.559 118.514 342.448 119.981 343.337 121.492C343.87 122.381 344.048 123.403 344.403 124.381C344.492 124.603 345.026 127.759 344.759 128.914C344.581 129.492 344.003 132.647 343.781 133.225Z" fill="#999999"/>
<path d="M322.357 95.0478C323.291 95.0034 324.135 95.1812 324.802 95.7145C325.869 96.6034 326.135 97.8478 325.824 99.1811C325.735 99.6255 325.602 100.026 325.602 100.47C325.602 101.492 325.113 102.426 324.846 103.359C324.669 104.025 324.491 104.648 324.224 105.314C323.869 106.203 323.602 106.381 322.357 106.381C321.557 106.381 321.246 105.981 320.979 105.27C319.824 102.47 320.179 99.4478 319.824 96.5589C319.735 95.9811 320.046 95.5811 320.668 95.3589C321.246 95.1367 321.824 95.0034 322.357 95.0478Z" fill="#999999"/>
<path d="M260.441 192.113C260.397 191.847 260.441 191.58 260.175 191.447C259.908 191.313 259.686 191.447 259.463 191.624C259.108 191.891 258.752 192.158 258.397 192.38C257.463 193.047 256.485 192.913 255.774 192.024C254.708 190.691 254.307 189.091 254.085 187.491C253.996 186.869 253.507 183.758 253.241 182.825C252.885 181.625 252.53 180.425 252.13 179.225C251.374 177.047 250.04 175.225 248.485 173.58V173.18C249.107 172.558 249.685 171.936 250.307 171.358C251.018 170.647 251.596 169.891 251.952 168.869C252.174 168.291 252.974 165.491 253.107 164.78C253.996 160.603 253.285 155.225 253.196 154.692C252.974 153.714 252.663 152.78 252.085 152.025C250.796 150.336 249.018 149.358 247.062 148.647C246.085 148.292 245.062 148.247 244.129 147.981C242.929 147.625 237.506 147.181 236.173 147.358C235.284 147.492 234.973 148.203 235.55 148.958C237.062 150.958 235.995 157.403 235.728 159.492C235.417 161.803 234.173 172.914 234.261 175.936C234.261 176.291 234.261 176.647 234.217 177.002C233.906 180.202 233.595 183.447 233.995 186.691C234.173 188.113 234.173 189.58 235.239 190.736C235.684 191.269 236.217 191.713 236.928 191.491C237.64 191.313 238.306 191.002 238.928 190.647C239.729 190.202 240.262 189.58 240.04 188.558C239.995 188.38 240.04 188.202 240.04 188.024C240.04 183.802 239.951 179.58 240.484 175.358C240.529 175.18 240.484 174.78 240.706 174.914C241.284 175.269 241.995 175.136 242.573 175.491C243.996 176.336 244.218 177.847 244.662 179.225C244.973 180.113 245.018 181.136 245.329 182.025C245.64 183.091 245.729 184.158 245.996 185.18C246.307 186.336 246.485 187.58 246.974 188.736C248.04 191.402 249.64 193.58 252.13 195.091C253.196 195.713 254.441 196.158 255.641 196.113C257.33 196.024 258.797 195.18 259.819 193.802C260.13 193.269 260.53 192.736 260.441 192.113ZM244.44 157.892C243.996 160.78 244.04 163.669 243.862 166.558C243.773 167.625 243.773 168.78 243.151 169.802C242.618 170.647 241.684 170.869 240.929 171.314C240.573 171.491 240.395 171.18 240.395 170.825C240.395 170.025 240.351 169.18 240.351 168.38C240.351 163.136 240.351 157.936 240.351 152.692C240.351 152.158 240.306 151.625 240.884 151.358C241.418 151.136 241.906 151.358 242.351 151.714C243.329 152.425 243.818 153.403 243.996 154.603C244.173 155.669 244.529 156.736 244.44 157.892Z" fill="#999999"/>
<path d="M304.534 161.536C304.534 165.18 304.445 168.78 304.578 172.425C304.667 175.358 304.978 178.291 305.2 181.18C305.334 182.78 305.2 184.38 304.534 185.847C304.267 186.424 303.778 186.513 303.245 186.424C302.311 186.247 301.378 186.291 300.4 186.335C299.155 186.38 298.489 185.98 298.133 184.78C297.733 183.491 297.555 182.113 297.111 180.824C296.711 179.624 296.444 178.336 295.955 177.18C295.688 176.602 295.555 175.98 295.466 175.358C295.333 174.513 295.066 173.669 294.844 172.869C294.399 171.447 294.222 169.936 293.688 168.513C293.155 167.225 292.844 165.847 292.622 164.425C292.444 163.18 291.999 161.98 291.644 160.78C291.555 160.558 291.333 160.291 291.11 160.291C290.799 160.336 290.888 160.691 290.888 160.914C290.844 164.825 290.888 168.78 290.799 172.691C290.755 175.536 290.266 178.38 290.399 181.224C290.444 181.847 290.444 182.424 290.666 183.047C290.977 183.98 290.755 184.869 290.31 185.713C289.866 186.558 288.221 186.469 287.51 185.535C287.021 184.913 286.799 184.069 286.754 183.269C286.71 180.113 286.71 176.958 286.71 173.758C286.71 170.558 286.843 167.313 286.754 164.114C286.71 161.758 286.888 159.402 287.288 157.091C287.688 154.603 287.51 152.114 287.643 149.625C287.732 148.336 288.221 147.803 289.555 147.758C291.288 147.714 292.399 148.558 293.11 150.114C293.777 151.625 294.444 153.091 295.022 154.647C295.688 156.469 296.533 158.247 297.111 160.114C297.511 161.314 297.911 162.514 298.178 163.714C298.666 165.669 299.244 167.625 299.955 169.536C300.044 169.802 300.267 169.98 300.533 169.936C300.8 169.891 300.8 169.669 300.8 169.447C300.8 169.358 300.8 169.313 300.8 169.225C300.889 167.136 301.022 165.047 301.156 162.958C301.422 158.514 301.867 154.069 301.733 149.58C301.733 149.136 301.689 148.647 301.911 148.247C302.133 147.847 302.311 147.492 302.889 147.58C303.422 147.625 303.778 147.758 304.045 148.292C304.311 148.869 304.445 149.447 304.445 150.069C304.445 153.847 304.445 157.625 304.445 161.402C304.489 161.536 304.534 161.536 304.534 161.536Z" fill="#999999"/>
<path d="M323.691 159.58C323.691 158.558 323.469 157.492 323.069 156.558C322.402 155.092 321.424 153.714 320.002 152.914C316.668 151.047 312.401 151.625 311.823 151.803C310.401 152.292 309.734 152.247 309.779 154.203C309.779 155.625 309.423 164.469 309.023 167.447C308.712 169.669 308.712 175.802 308.623 176.602C308.445 178.425 307.778 186.247 308.134 188.069C308.445 189.758 308.756 189.936 310.445 190.113C311.379 190.202 312.268 190.513 313.157 190.78C314.49 191.224 315.779 191.136 317.068 190.913C318.802 190.602 320.135 189.58 321.246 188.247C321.913 187.447 322.846 186.78 323.157 185.802C323.469 184.78 323.602 183.713 323.646 182.647C323.824 174.958 323.735 167.269 323.691 159.58ZM316.224 184.602C316.001 186.158 314.846 187.136 313.379 187.713C312.668 187.98 312.223 187.713 312.223 186.913C312.268 184.691 312.045 182.469 312.534 180.291C312.668 179.58 312.623 178.869 312.668 178.158C313.201 172.691 313.112 167.225 313.201 161.714C313.201 160.247 313.29 158.825 313.157 157.358C313.068 156.469 313.379 155.714 313.601 154.914C313.735 154.425 314.49 154.38 314.935 154.736C315.379 155.047 315.646 155.58 315.69 156.025C315.868 156.914 316.313 157.758 316.268 158.692C316.179 161.803 316.135 164.914 316.224 166.558C316.312 172.025 316.135 176.025 316.579 180.025C316.801 181.58 316.446 183.091 316.224 184.602Z" fill="#999999"/>
<path d="M276.309 177.136C276.398 180.424 275.954 183.669 275.865 186.913C275.82 188.78 275.954 188.869 277.82 188.691C278.487 188.647 279.154 188.424 279.776 188.558C280.176 188.647 280.665 188.647 280.798 189.18C280.932 189.713 280.754 190.113 280.398 190.469C279.687 191.18 278.754 191.491 277.865 191.847C275.554 192.691 273.153 192.78 270.709 192.913C269.509 193.002 268.62 192.024 267.997 190.913C267.508 189.98 267.597 189.002 267.553 188.024C267.375 183.847 267.864 179.669 268.131 175.491C268.22 174.025 269.109 167.402 269.242 165.98C269.42 164.069 269.686 162.202 269.909 160.291C270.086 158.869 270.753 150.336 270.753 148.38C270.753 146.914 271.375 146.247 272.842 146.469C276.176 146.914 279.554 147.047 282.843 147.803C282.887 147.803 282.932 147.803 282.976 147.847C283.776 148.069 284.399 148.647 284.399 149.18C284.399 149.758 283.688 150.38 282.843 150.514C281.421 150.78 279.998 150.558 278.62 150.203C278.576 150.203 278.532 150.158 278.487 150.158C276.487 149.625 276.131 149.936 276.176 151.98C276.22 153.803 276.131 155.625 275.909 157.491C275.642 159.891 275.731 162.336 275.865 164.736C275.909 165.447 276.22 166.114 276.265 166.825C276.265 167.313 276.665 167.358 277.02 167.358C278.043 167.402 279.065 167.402 280.087 167.402C280.843 167.402 281.598 167.536 282.354 167.758C282.887 167.936 283.332 168.247 283.465 168.78C283.732 169.669 283.287 170.202 282.31 170.425C281.065 170.736 279.821 170.913 278.532 170.558C278.132 170.469 277.731 170.469 277.331 170.469C276.62 170.469 276.265 170.825 276.265 171.58C276.309 173.447 276.309 175.269 276.309 177.136Z" fill="#999999"/>
<path d="M217.549 181.269C217.416 174.869 218.127 168.558 218.082 162.203C218.082 160.558 218.305 158.825 218.571 157.18C218.883 154.958 219.283 152.736 219.416 150.469C219.46 149.936 219.683 149.403 219.86 148.869C219.994 148.558 220.349 148.514 220.66 148.469C221.149 148.425 221.638 148.38 222.127 148.425C223.994 148.736 225.905 148.603 227.772 148.647C228.528 148.692 229.239 148.78 229.95 149.047C230.572 149.269 230.795 149.669 230.75 150.336C230.706 150.958 230.306 151.225 229.817 151.358C228.794 151.669 227.728 151.492 226.705 151.492C224.75 151.447 224.394 151.98 225.105 153.803C225.239 154.158 225.283 154.469 225.283 154.869C225.416 159.047 225.905 163.225 225.772 167.402C225.727 168.558 226.394 169.091 227.55 168.869C228.483 168.736 229.328 168.78 229.994 169.536C230.306 169.847 230.261 170.114 230.039 170.469C229.417 171.402 228.483 171.713 227.461 171.713C225.95 171.713 225.372 172.558 225.327 174.025C225.15 177.136 224.794 180.247 224.75 183.402C224.705 185.047 224.305 186.736 223.638 188.291C223.372 188.869 223.238 189.535 223.061 190.158C222.705 191.447 221.949 192.024 220.616 191.891C219.86 191.847 219.149 191.624 218.482 191.313C218.305 191.224 218.127 191.135 218.082 190.913C217.949 190.113 217.594 189.358 217.549 188.469C217.46 186.113 217.46 183.669 217.549 181.269Z" fill="#999999"/>
<path d="M335.558 177.091C335.292 175.847 334.803 174.736 334.492 173.536C334.225 172.602 333.78 171.758 333.425 170.869C333.025 169.936 332.625 168.958 332.269 168.025C331.914 167.091 331.469 166.158 331.158 165.225C330.891 164.425 330.047 161.714 329.869 161.136C329.602 160.291 329.158 158.069 329.158 157.803C329.38 155.714 330.047 153.891 332.002 152.825C334.18 151.625 336.403 151.536 338.625 152.736C339.47 153.18 339.959 153.98 339.959 154.958C339.959 155.847 339.959 156.691 339.959 157.58C339.959 158.203 339.603 158.691 339.247 159.136C338.892 159.536 338.447 159.758 337.958 159.491C337.514 159.269 337.247 158.869 337.247 158.336C337.247 157.758 337.203 157.225 337.203 156.647C337.247 155.891 336.936 155.269 336.669 154.603C336.447 154.025 335.869 153.891 335.381 153.803C334.847 153.758 334.403 154.069 334.18 154.469C333.514 155.714 333.514 156.958 333.869 158.336C334.447 160.691 335.914 162.602 336.892 164.736C337.514 166.114 338.403 167.358 339.247 168.602C340.314 170.247 341.381 171.98 341.692 173.936C341.959 175.402 342.714 180.247 340.759 183.536C340.448 184.202 339.959 184.824 339.648 185.491C339.025 187.002 337.692 187.58 336.358 188.069C334.625 188.691 332.758 189.002 330.936 188.647C329.424 188.335 328.135 187.624 327.38 186.158C327.247 185.891 327.202 185.624 327.202 185.358C327.202 184.336 327.247 183.313 327.158 182.291C327.069 181.002 328.447 179.447 329.913 179.447C331.291 179.447 331.958 180.336 331.425 181.624C330.936 182.824 331.025 184.024 331.425 185.224C331.558 185.713 332.002 186.069 332.625 186.024C334.136 185.935 335.425 185.491 336.181 184.069C336.536 183.447 335.869 178.691 335.558 177.091Z" fill="#999999"/>
<path d="M263.508 166.78C263.508 168.247 263.508 172.78 263.508 173.625C263.508 175.891 263.642 178.114 263.464 180.38C263.331 181.98 263.242 183.625 262.975 185.225C262.797 186.247 262.708 187.224 262.619 188.247C262.575 189.002 261.953 189.624 261.153 189.669C260.041 189.713 258.975 189.758 258.041 188.913C257.775 188.647 257.597 188.38 257.597 187.98C256.841 180.736 258.441 169.136 258.619 166.291C258.752 164.647 258.93 163.003 258.975 161.358C259.019 160.203 259.997 159.536 261.108 159.803C262.575 160.158 262.797 160.647 263.108 162.069C263.508 163.625 263.508 165.18 263.508 166.78Z" fill="#999999"/>
<path d="M261.686 149.403C262.664 149.625 263.642 149.314 264.442 149.98C264.975 150.425 265.375 150.914 265.331 151.625C265.286 152.603 265.642 153.625 264.975 154.514C264.175 155.536 263.019 156.069 261.73 156.069C260.486 156.069 259.419 155.669 258.841 154.336C258.352 153.269 258.397 152.247 258.797 151.18C258.841 151.003 258.886 150.825 258.93 150.647C259.108 149.803 259.552 149.447 260.397 149.403C260.886 149.403 261.33 149.403 261.686 149.403Z" fill="#999999"/>
</g>
<defs>
<clipPath id="clip0">
<rect width="260.713" height="116" fill="white" transform="translate(83 83)"/>
</clipPath>
</defs>
</svg>
