<svg width="100" height="100" viewBox="0 0 100 100" fill="none" xmlns="http://www.w3.org/2000/svg">
<rect width="100" height="100" fill="white"/>
<path d="M100 0H0V100H100V0Z" fill="#EDEDED"/>
<path d="M71.8625 69.4611C71.8625 69.4887 71.8625 69.4887 71.8904 69.5166L71.8625 69.4611ZM33.9887 21.2344C34.0167 21.2344 34.0167 21.2344 33.9887 21.2344V21.2344ZM30.6017 35.458C30.5737 35.4301 30.5737 35.3745 30.5457 35.3466C30.5457 35.319 30.5177 35.2911 30.5177 35.2356C30.5737 35.3745 30.6297 35.5135 30.6857 35.6245C30.6297 35.569 30.6297 35.5135 30.6017 35.458Z" fill="#AAAAAA"/>
<path d="M86.2224 48.2927C86.2783 47.9037 85.5507 44.1258 85.3828 43.6813C84.8786 42.5144 84.5707 41.2644 84.291 40.042C83.9552 38.5696 82.6393 37.3196 82.0514 35.9861C81.8555 35.5137 81.6038 35.0137 81.3517 34.5413C81.0997 34.0692 80.8479 33.6248 80.5959 33.1803C79.9241 31.9855 78.9445 31.0134 78.3007 29.8189C77.9366 29.1244 76.2293 27.152 76.1731 27.0961C76.1731 27.0961 70.7428 22.6792 70.2107 22.0958C69.8748 21.7069 67.0476 20.3735 66.5717 20.2068C66.0679 20.0123 64.5845 19.1789 64.2203 19.1233C64.0245 19.0956 61.701 17.9843 60.9172 17.9843C60.1055 17.9566 59.2938 17.8455 58.51 17.5954C58.1741 17.4843 55.319 16.9009 54.871 16.9009C52.1838 16.8731 50.2524 16.9842 49.4124 17.012C48.349 17.0398 40.9869 18.0121 40.679 18.2066C40.511 18.3177 34.3807 19.6512 30.4618 22.2347C29.762 22.6792 21.8122 28.5686 17.8373 34.8192C17.6973 35.1248 14.8981 41.1254 14.8701 41.403C14.6462 42.1254 13.4425 46.1813 13.4145 46.4592C13.3585 47.1537 13.3025 47.8203 13.2186 48.5148C13.2186 48.5427 13.1626 51.793 13.2186 52.7375C13.3025 53.1541 13.1626 55.6544 13.1066 56.4599C13.0786 56.8213 13.2466 58.1823 13.2746 58.5713C13.3305 58.9603 13.4985 60.8217 13.5825 61.2382C13.6105 61.4882 14.5342 64.433 14.6462 64.8496C14.6741 65.0999 16.5776 69.4058 16.6336 69.7113C16.6336 69.7113 18.0892 72.5172 18.2851 72.8506C18.677 73.4337 19.0969 74.2672 19.6288 74.823C19.9647 75.1841 22.0641 77.7399 22.2041 77.6565C22.288 77.601 22.288 77.323 22.2601 77.0175C22.2601 76.9341 22.2321 76.851 22.2321 76.7675C22.2321 76.6841 22.2041 76.601 22.2041 76.5175C22.2041 76.462 22.1761 76.4341 22.1761 76.3785C22.1481 76.2396 22.1481 76.1285 22.1201 75.9896C22.0921 75.7951 22.0641 75.6006 22.0641 75.462C22.0641 75.462 21.8682 74.0727 21.8682 73.7396C21.8402 73.3227 21.7842 72.9337 21.9241 72.5172C21.9241 72.4616 22.624 66.9054 22.9039 66.0165C22.8479 65.7944 23.3238 64.5996 23.7716 64.2941C24.2755 63.933 24.4995 63.9606 24.6394 64.5441C24.6954 64.7665 24.8073 64.9054 24.9193 65.0999C25.2552 65.6275 26.151 67.711 26.3469 68.1279C26.9628 69.3503 27.7186 70.4892 28.2784 71.7948C28.7822 73.0451 29.4821 74.3227 30.6018 75.2396C30.9657 75.5175 31.0496 75.462 31.1896 75.073C31.3576 74.6841 31.6375 72.5727 31.7215 71.9337C31.8054 71.2948 31.7774 70.5448 31.9174 69.9058C32.1973 68.5999 32.3653 67.2944 32.5052 65.961C32.7012 63.7941 33.1211 61.6551 33.5129 59.5158C33.7929 58.0437 34.0728 56.5434 34.3807 55.071C34.6045 53.932 34.7728 52.7375 34.9966 51.5985C35.1924 50.5151 36.2841 46.9868 36.3962 46.7648C36.4521 46.5982 36.5921 45.3758 36.7041 44.9313C36.8441 44.5144 37.0679 42.6254 37.2359 41.0699C37.2359 40.9865 37.2359 40.931 37.2638 40.8754C37.2638 40.8199 37.2921 40.7641 37.2921 40.7085C37.32 40.5975 37.32 40.4865 37.32 40.3754C37.32 40.3196 37.3479 40.2365 37.3479 40.181C37.3479 40.153 37.3479 40.0975 37.3479 40.0696C37.3479 40.042 37.3479 40.0141 37.3479 40.0141C37.3479 39.9585 37.3479 39.903 37.3759 39.8475C37.4038 39.6806 37.4038 39.542 37.4038 39.403C37.4038 39.3751 37.4038 39.3751 37.4038 39.3475C37.4038 39.3196 37.4038 39.292 37.4038 39.2641C37.4038 39.2085 37.4038 39.1806 37.4038 39.153C37.4038 39.0975 37.4038 39.0417 37.4038 38.9861C37.4038 38.9585 37.4038 38.9306 37.4038 38.903C37.4038 37.9027 37.3479 36.9027 37.0121 35.8192C36.5641 36.6527 36.1721 37.3751 35.7803 38.0696C35.3324 38.9306 34.9686 39.8475 34.1568 40.4865C33.8489 40.7365 33.5409 40.8475 33.261 40.8475C32.8131 40.8475 32.4212 40.5696 32.1693 40.042C31.6375 38.7917 31.2456 37.4582 30.8817 36.1527C30.8817 36.1527 30.8537 36.1248 30.8537 36.0692C30.8537 36.0417 30.8257 36.0137 30.8257 35.9861C30.8257 35.9582 30.7977 35.9582 30.7977 35.9303C30.7697 35.9027 30.7697 35.8472 30.7417 35.8192C30.7137 35.7917 30.7137 35.7637 30.6857 35.7358C30.6577 35.6803 30.6298 35.6248 30.6298 35.5972C30.5738 35.4858 30.5178 35.3472 30.4618 35.2082C30.4338 35.1803 30.4338 35.1527 30.4338 35.0972C30.4338 35.0692 30.4058 35.0692 30.4058 35.0413C30.4058 35.0413 30.4058 35.0413 30.4058 35.0137C30.4058 34.9858 30.3778 34.9303 30.3498 34.9027C30.3218 34.8468 30.2938 34.7637 30.2658 34.7082C30.2099 34.5692 30.1819 34.4303 30.1259 34.2913C29.9299 33.6248 29.818 32.9023 30.0419 32.4303C30.1539 31.7634 31.8054 31.0134 32.1413 30.791C33.0091 30.1799 34.0448 29.8744 34.9124 29.291C35.8924 28.6241 36.9559 28.0686 38.0197 27.513C38.3555 27.3461 38.6914 27.2351 38.9993 27.2351C39.2514 27.2351 39.4752 27.2906 39.7272 27.4575C39.7552 27.4851 39.7831 27.4851 39.8114 27.513C39.8393 27.5406 39.8672 27.5406 39.8952 27.5686C39.9231 27.5965 39.951 27.5965 39.9793 27.6241C40.931 28.263 43.7583 30.152 44.8217 30.791C44.8779 30.8189 44.9338 30.8465 44.9897 30.8744C45.0179 30.8744 45.0179 30.9023 45.0459 30.9023C45.0738 30.9299 45.1017 30.9299 45.1297 30.9579C45.1859 30.9854 45.2138 30.9855 45.2417 31.0134C45.2417 31.0134 45.2417 31.0134 45.2697 31.0134C45.3538 30.9023 49.5524 30.8189 51.5121 30.7634C52.6876 30.7354 53.8352 30.8465 55.011 30.6244C56.4666 30.5689 57.7541 29.8744 59.07 29.3744C60.6376 28.763 62.1769 28.152 63.7445 27.5406C63.9965 27.4296 64.2486 27.402 64.5003 27.402C64.8641 27.402 65.2003 27.4851 65.5362 27.6241C66.5438 28.041 67.6076 28.291 68.6431 28.6799C69.651 29.041 70.7148 29.2075 71.8062 29.2075C71.8624 29.2075 71.9462 29.2075 72.0024 29.2075H72.0303C72.4221 29.2075 72.73 29.3744 72.9541 29.6244C72.9821 29.652 73.01 29.7075 73.0379 29.7354C73.0659 29.763 73.0941 29.791 73.0941 29.8189C73.1221 29.8465 73.15 29.902 73.1779 29.9299C73.2059 29.9854 73.2341 30.0689 73.2621 30.1244C73.29 30.152 73.29 30.2075 73.3179 30.2354V30.2634C73.3459 30.3189 73.3459 30.3465 73.3459 30.402C73.3738 30.4579 73.3738 30.541 73.4021 30.5965C73.57 31.4855 72.9821 31.9579 72.6183 32.5413C72.2824 33.0689 70.9107 35.1527 70.8265 35.3192C70.7986 35.3748 70.7986 35.4303 70.7707 35.4582C70.7428 35.5137 70.7148 35.5692 70.7148 35.5972C70.2948 36.5692 69.7631 37.4306 69.1472 38.2917C68.5034 39.292 67.9714 40.1251 67.9155 40.2641C67.7755 40.792 67.2997 40.9865 66.8517 41.0141H66.8238C66.7959 41.0141 66.7679 41.0141 66.7397 41.0141C66.7117 41.0141 66.7117 41.0141 66.6838 41.0141C66.6838 41.0141 66.6838 41.0141 66.6559 41.0141C66.6279 41.0141 66.6279 41.0141 66.5997 40.9865C66.5717 40.9865 66.5438 40.9585 66.5438 40.9585C66.5159 40.9585 66.4879 40.931 66.46 40.903C66.4317 40.8754 66.4038 40.8475 66.3759 40.8475C66.3479 40.8199 66.3479 40.8199 66.32 40.792C66.2917 40.7641 66.2638 40.7086 66.2359 40.681C66.2079 40.653 66.2079 40.6254 66.2079 40.6254C66.18 40.5696 66.1238 40.4865 66.0959 40.431C66.0679 40.3754 66.04 40.3196 66.04 40.292C65.5641 39.2361 65.3121 38.1251 64.7245 37.1251C64.4724 36.7082 64.4445 36.0972 64.2765 35.5972C64.1924 35.3748 64.1086 35.2913 64.0245 35.2913C63.9407 35.2913 63.8286 35.3748 63.6886 35.5137C63.2966 35.9027 63.1569 36.3192 63.2965 36.8751C63.6607 38.3196 64.1365 42.042 64.1086 42.431C64.2486 42.7365 65.62 52.1265 65.6479 53.8489V53.8765C65.8159 54.3489 66.0121 54.821 66.2079 55.321C66.2079 55.3489 66.2079 55.3489 66.2359 55.3765C66.5997 56.2379 66.9917 57.0989 67.2717 57.9323C67.3276 58.0437 68.2234 60.2937 69.2869 62.9885C68.811 63.1275 68.1955 63.3496 67.5797 63.572C67.4397 63.5996 67.3276 63.6551 67.2155 63.7106C67.0755 63.7665 66.9638 63.7941 66.8517 63.8496V63.822C66.8797 63.683 66.9076 63.5441 66.9359 63.4051C66.9359 63.2385 67.0197 61.7106 66.9359 61.0161C66.8238 60.1272 66.5159 58.1548 66.46 57.9879C66.04 56.6823 65.0324 54.1544 64.9483 53.9875C64.6403 53.432 64.2486 52.9599 63.8845 52.4596C63.5765 52.071 63.2965 51.7096 63.0728 51.3206C62.9048 51.0706 62.6528 50.8206 62.401 50.6817C62.289 50.9041 62.149 51.2096 62.121 51.3761C61.869 52.543 61.5893 53.7099 61.3372 54.8489L61.1134 55.8768C61.1693 56.0713 61.2252 56.4323 61.2814 57.2103C61.3372 57.8492 61.3931 58.7658 61.3931 59.3492C61.3931 59.8772 61.3372 60.3772 61.3093 60.9051C61.2814 61.3772 61.2252 61.8772 61.2252 62.3772C61.2252 62.9885 61.1972 63.6275 60.8614 64.2385C61.3372 65.5444 62.3731 66.1554 63.1569 66.461L63.3248 66.5165C63.9407 66.7389 64.5562 66.9889 65.1721 66.6554C65.2283 66.6275 65.34 66.5444 65.4521 66.4334C65.5641 66.4334 65.7321 66.3775 65.8721 66.322C65.9559 66.2665 66.0679 66.211 66.2359 66.1554C66.3759 66.0999 66.5438 66.072 66.7117 66.0165C66.9917 65.961 67.2438 65.933 67.3834 65.961C67.8314 66.0165 68.3072 66.0999 68.7272 65.961C69.2869 65.7665 69.8748 65.7665 70.4348 65.683C70.5465 65.9889 70.6865 66.2944 70.7986 66.5999C69.3431 66.6554 67.5234 66.7665 66.5717 67.0444C66.4317 67.0999 66.1521 67.0999 66.0121 67.1279C65.6762 67.1834 65.5083 67.4889 65.5083 67.7389C65.5362 68.0999 65.8721 67.8779 66.04 67.8499C66.4879 67.7944 66.9359 67.9889 67.3276 67.8499C68.3914 67.4334 69.4552 67.7944 70.5186 67.6834C70.6307 67.6834 70.9107 67.6554 71.2186 67.6554C71.4703 68.2944 71.7224 68.9058 71.9183 69.4613L71.9462 69.5168C71.9462 69.4889 71.9183 69.4889 71.9183 69.4613C70.4907 68.9058 69.0352 70.2392 69.1752 71.9058C69.259 72.9061 69.2869 73.8782 69.4269 74.8785C69.5948 76.073 69.959 77.1841 71.2466 77.712C71.4424 77.7954 71.6103 77.851 71.8345 77.9065C73.5979 78.323 74.5776 77.462 74.6055 77.4341C75.0814 78.7675 75.4734 79.7954 75.5572 79.7399C76.481 79.2679 81.1559 73.2951 81.4917 72.7948C82.1914 71.7116 84.8228 66.572 85.1586 65.5444C85.2428 65.2665 85.6065 64.0996 85.5786 63.6551C85.5507 63.3496 85.9703 61.2382 86.0824 60.4606C86.1383 60.0161 86.7262 54.1265 86.7262 54.0989C86.7541 53.7654 86.1945 48.5427 86.2224 48.2927ZM34.0168 21.2346C33.9888 21.2346 33.9888 21.2346 34.0168 21.2346C33.9888 21.2346 33.9888 21.2346 34.0168 21.2346C33.9888 21.2346 33.9888 21.2346 34.0168 21.2346C33.9888 21.2346 33.9888 21.2346 34.0168 21.2346C33.9888 21.2346 33.9888 21.2346 34.0168 21.2346ZM63.4928 64.433C62.5131 64.5165 62.009 63.822 61.5052 63.183C61.4214 63.0717 61.5052 62.8772 61.561 62.7661C61.8131 62.3217 62.569 63.0161 62.8207 63.2385C63.2128 63.5996 63.4648 63.5161 63.5765 63.0441C63.7165 62.5161 64.0245 62.3496 64.5283 62.4327C64.6962 62.4606 64.8083 62.5441 64.7803 62.7106C64.7245 63.3216 64.3883 64.3496 63.4928 64.433ZM67.0476 65.2385C66.9076 65.2665 66.7679 65.2941 66.6279 65.322C66.46 65.3499 66.32 65.3775 66.2079 65.433C66.3759 65.1275 66.5159 64.7941 66.6559 64.5441C66.7959 64.5165 66.9359 64.4885 67.0476 64.461C67.1876 64.433 67.2997 64.4051 67.4397 64.3775C67.4955 64.3496 67.5514 64.3496 67.6076 64.3496C68.0276 64.183 68.8393 63.9606 69.6231 63.7665C69.7348 64.072 69.8748 64.3775 69.9869 64.683C68.9793 64.8496 67.8876 65.072 67.0476 65.2385Z" fill="#AAAAAA"/>
<path d="M72.6741 30.7355C72.73 31.1523 72.59 31.3744 72.2541 31.8189C72.1703 31.9299 72.0583 32.0689 71.9741 32.2079C71.9183 32.2913 71.8062 32.4579 71.6945 32.6244C70.3507 34.6803 70.1827 34.9582 70.1269 35.0968C70.1269 35.1248 70.0989 35.1527 70.0989 35.1803L70.0707 35.2358L70.0427 35.2637C70.0427 35.2913 70.0148 35.3192 69.9869 35.3472C69.7069 35.9303 69.2031 36.7917 68.4752 37.9582C68.3072 38.2086 68.1672 38.4586 67.9993 38.6806C67.3276 39.7086 67.2155 39.9306 67.1596 40.1251C67.1317 40.2641 66.9917 40.3475 66.7958 40.3751C66.7676 40.3196 66.6838 40.2086 66.5996 40.0141C66.4317 39.653 66.2917 39.2641 66.152 38.8472C65.9 38.1527 65.6479 37.4582 65.2562 36.7637C65.172 36.5972 65.0883 36.3192 65.032 36.0692C64.9762 35.8472 64.9203 35.5972 64.8362 35.3472C64.6124 34.7082 64.1924 34.5968 63.9407 34.5968C63.5765 34.5968 63.2965 34.8192 63.1286 35.0137C62.5689 35.5972 62.3731 36.2361 62.5689 36.9861C62.8207 37.9582 63.1007 40.042 63.2686 41.3199C63.1569 41.2086 63.0727 41.0696 62.9607 40.903C62.3169 39.9586 61.3651 38.7917 59.7976 38.0972C58.7338 37.6251 57.782 36.9027 57.0265 35.9858C56.0465 34.7913 55.7669 33.2913 55.6269 31.9579C55.5989 31.791 55.5707 31.6244 55.5427 31.4579C55.5148 31.3465 55.4869 31.2634 55.4869 31.1799C56.5507 31.041 57.4741 30.652 58.3979 30.2634C58.6779 30.152 58.9858 30.013 59.2658 29.902C60.5534 29.402 62.2331 28.763 63.9407 28.0686C64.1086 28.013 64.2765 27.9575 64.4445 27.9575C64.6683 27.9575 64.9203 28.013 65.2 28.1241C65.8158 28.3741 66.4317 28.5686 67.0196 28.763C67.4676 28.902 67.9155 29.041 68.3351 29.2075C69.371 29.5965 70.5186 29.791 71.7503 29.791C71.8345 29.791 71.8903 29.791 71.9741 29.791C72.4783 29.902 72.6462 30.4855 72.6741 30.7355Z" fill="#AAAAAA"/>
<path d="M44.6538 31.4854C44.6259 31.541 44.5979 31.5968 44.57 31.6523C44.4579 31.791 44.3741 31.9299 44.29 32.0689C43.8141 32.7634 43.3662 33.4303 42.7503 33.9858C42.2745 34.4303 41.8828 34.9303 41.519 35.4303C41.2948 35.7358 41.071 36.0417 40.819 36.2917C40.539 36.5972 40.2872 36.9306 40.0631 37.2361C39.7272 37.6527 39.4193 38.0417 39.0834 38.4027C38.8317 38.6806 38.4955 39.0141 38.1597 39.3475C38.1597 39.2641 38.1597 39.2086 38.1597 39.153C38.1597 39.0975 38.1597 39.0417 38.1597 38.9861C38.1597 38.9586 38.1597 38.9306 38.1597 38.8751C38.1597 37.8751 38.1038 36.7917 37.74 35.5972L37.2641 34.0968L36.5083 35.4858C36.0603 36.3192 35.6683 37.0417 35.2765 37.7637C35.1924 37.9306 35.1086 38.0696 35.0245 38.2361C34.6886 38.903 34.3528 39.542 33.8209 39.9865C33.653 40.1251 33.485 40.1806 33.3451 40.1806C33.0931 40.1806 32.9532 39.9586 32.8692 39.792C32.3373 38.5417 31.9454 37.2361 31.6095 35.9858C31.6095 35.9303 31.5815 35.8748 31.5535 35.8192C31.5535 35.7917 31.5256 35.7637 31.4976 35.7082C31.4976 35.7082 31.4976 35.6803 31.4696 35.6803C31.4696 35.6527 31.4416 35.6248 31.4136 35.5972V35.5692C31.4136 35.5413 31.3856 35.5137 31.3856 35.4858L31.3296 35.3192C31.2456 35.1248 31.1616 34.9027 31.0777 34.7082L31.0497 34.6248L31.0217 34.5137C30.9937 34.4023 30.9377 34.2913 30.9097 34.1523C30.6298 33.2358 30.7418 32.8468 30.7977 32.7358L30.8257 32.6523V32.5968C30.9097 32.4023 31.3856 32.0689 32.2254 31.6244C32.3933 31.5134 32.5333 31.4579 32.6453 31.4023C33.0371 31.1244 33.485 30.9299 33.9329 30.7079C34.4088 30.4855 34.9128 30.2355 35.3886 29.902C36.3124 29.263 37.32 28.7354 38.4117 28.152C38.6917 28.013 38.8876 27.9575 39.0834 27.9575C39.2234 27.9575 39.3355 27.9851 39.4472 28.0686L39.4755 28.0965L39.5314 28.1241H39.5593L39.7272 28.263H39.7834C40.0914 28.4575 40.539 28.763 41.071 29.1241C42.3028 29.9299 43.8141 30.9579 44.57 31.4023C44.5979 31.4299 44.6259 31.4299 44.6538 31.4579V31.4854Z" fill="#AAAAAA"/>
<path d="M30.6578 35.6248C30.6018 35.5138 30.5458 35.3748 30.4899 35.2358C30.5178 35.2638 30.5178 35.2914 30.5178 35.3469C30.5458 35.3748 30.5458 35.4303 30.5738 35.4582C30.6298 35.5138 30.6298 35.5693 30.6578 35.6248Z" fill="#AAAAAA"/>
<path d="M48.8248 61.9053L48.601 61.8773C47.2852 61.7108 46.3334 62.4332 45.4938 63.0998C45.3538 62.0163 45.2417 61.0439 45.2417 60.0439C45.27 58.4049 45.1579 56.7935 45.27 55.1546C45.3258 54.488 45.4658 53.8491 45.5217 53.1822C45.5496 52.8211 45.6338 52.5432 45.9138 52.4601C46.1934 52.3767 46.5855 52.5156 46.7814 52.7932C47.6772 54.0991 48.8807 55.0991 49.8045 56.377C49.8607 56.4604 50.6445 57.5994 51.5679 57.5994C52.4917 57.5715 53.3876 57.2936 54.3114 57.3494C54.8993 57.377 55.5152 57.1825 56.1027 57.0435C57.5303 56.738 58.9579 56.0715 60.4696 55.9601C60.4696 55.9601 60.7217 58.4049 60.6934 59.3773C60.6934 59.8773 60.6376 60.3773 60.6096 60.8773C60.5534 61.3773 60.5255 61.8773 60.5255 62.4053C60.5255 63.0163 60.4976 63.5722 60.1896 64.0167L60.0776 64.1556V64.1832C59.49 64.0722 59.1258 63.6832 58.8179 63.1277C58.3703 62.3498 58.2303 61.4884 57.8662 60.7108C57.6145 60.2108 57.4465 59.6273 57.0824 59.1829C56.6065 58.5439 55.851 58.266 55.0672 58.1825C54.7031 58.1549 54.3114 58.1825 53.9476 58.2104C53.2476 58.266 52.9958 58.8494 52.8276 59.4049C52.4638 60.5163 51.82 61.4053 51.0362 62.2108L50.7562 62.1832L48.8248 61.9053Z" fill="#AAAAAA"/>
<path d="M62.3728 67.0166C62.3169 68.2945 60.8614 69.0445 59.7976 68.378C59.7135 68.3225 59.6576 68.267 59.5738 68.239C58.7338 69.3504 58.0621 69.378 56.6904 68.7114C56.3545 68.5445 56.1587 68.2114 56.2987 67.9611C56.4666 67.6835 56.8583 67.6001 57.1942 67.9056C57.5583 68.267 57.978 68.267 58.4259 68.1001C58.7059 67.989 58.8459 67.739 58.8459 67.4056C58.8459 67.1556 58.79 66.9335 58.538 66.9056C58.2021 66.8501 57.9221 66.6835 58.0062 66.3776C58.09 65.9887 58.118 65.5442 58.5659 65.3221C59.0697 65.0721 59.5455 65.0997 59.9655 65.4332C60.3855 65.7666 60.2176 66.2945 60.1055 66.6276C59.9655 67.0721 60.0497 67.2666 60.3855 67.489C61.0573 67.9335 61.4211 67.4056 61.3931 66.8777C61.3652 66.6277 61.5611 66.5166 61.7852 66.5166C62.009 66.5166 62.2611 66.6277 62.3449 66.8501C62.3728 66.8777 62.3728 66.9335 62.3728 67.0166Z" fill="#AAAAAA"/>
<path d="M71.8628 69.4902C71.8628 69.4619 71.8345 69.4619 71.8345 69.4336L71.8628 69.4902Z" fill="#AAAAAA"/>
<path d="M62.6248 45.8201C62.429 46.5146 62.5131 47.237 62.569 47.9315C62.6528 48.876 62.2052 49.5984 61.6172 50.237C61.0293 50.9039 60.4414 51.6263 59.4896 51.8484C57.6983 52.2928 55.4589 52.4318 54.0872 52.0153C53.6955 51.9039 53.4714 51.7929 53.4993 51.4318C53.4993 51.1818 53.6114 50.9594 53.9472 51.0149C54.9831 51.126 56.0469 51.4039 57.0545 51.2649C58.3421 51.0984 59.6858 50.9039 60.7214 49.9039C61.5614 49.098 61.5052 48.3204 61.5052 47.1815C60.2176 47.987 59.4617 47.2091 58.51 46.4866C58.3421 46.3756 58.2021 46.2366 58.0341 46.1256C57.5303 45.7646 57.1383 45.3477 57.2783 44.6811C57.3903 44.0422 57.9503 43.6811 58.5379 43.5697C59.5738 43.3753 60.6096 43.0977 61.6731 43.1532C61.7852 43.1532 61.9252 43.1253 62.0372 43.2366C62.541 43.7366 62.821 45.0977 62.6248 45.8201Z" fill="#AAAAAA"/>
<path d="M52.7158 79.9068C52.7717 80.9902 51.6241 82.2961 50.2803 82.5737C50.0565 82.6295 49.8603 82.6851 49.6365 82.7406C49.1607 82.8516 48.8807 82.6851 48.7969 82.1851C48.4327 80.4068 48.1248 78.6013 47.5093 76.8789C47.2851 76.212 47.2293 75.5175 47.1451 74.7954C48.3769 75.1564 49.5245 75.5454 50.7003 75.8509C51.4 76.0454 51.7358 76.6009 51.9879 77.1844C52.3796 78.0458 52.6596 78.9623 52.7158 79.9068Z" fill="#AAAAAA"/>
<path d="M50.3362 62.7662C50.0283 63.8496 49.2724 64.7941 48.5169 65.711L48.3207 65.961C48.1249 66.1834 47.789 66.711 47.4531 67.1834C47.1731 67.6 46.2214 68.5444 46.2214 68.5444C45.9976 67.6 45.7735 66.0165 45.6614 64.8775C45.6335 64.4886 45.5776 64.1275 45.5497 63.8775C45.6055 63.822 45.7455 63.7386 45.8014 63.7106C46.6135 63.0441 47.3969 62.4051 48.4886 62.5441L48.7128 62.5717C49.2445 62.6272 49.8324 62.7106 50.3362 62.7662Z" fill="#AAAAAA"/>
<path d="M52.5196 69.4613C51.82 69.6558 51.54 70.0448 50.9241 70.1834C50.2245 70.3503 49.5807 70.8223 48.9648 71.1837C48.041 71.7113 47.0052 72.0727 46.2496 72.8782C45.9976 73.1282 45.5496 73.1561 45.3817 72.8503C45.1859 72.4892 45.4096 72.0448 45.8017 71.8782C46.7255 71.4613 47.5372 70.8223 48.461 70.4058C49.3007 70.0448 50.0845 69.4334 51.0921 69.4334C51.54 69.4334 51.7921 68.9334 52.3796 69.0444C52.7996 69.1279 52.7438 69.4058 52.5196 69.4613Z" fill="#AAAAAA"/>
<path d="M52.4076 68.0442C51.9317 68.4611 51.26 68.4611 50.7004 68.6832C49.7486 69.0442 48.7128 69.2111 47.7052 69.4056C47.201 69.4887 46.9214 69.989 46.3893 70.0445C46.0535 70.1001 45.7176 70.2111 45.5497 69.85C45.4376 69.5721 45.6055 69.4332 45.8017 69.3221C45.8855 69.2945 45.9697 69.2387 46.0255 69.2111C46.1097 69.1556 46.2214 69.1001 46.3055 69.0442C46.3893 68.9887 46.6973 68.9056 47.1452 68.7666C48.4328 68.4052 50.8121 67.7942 51.4559 67.6832C51.7921 67.6276 52.0717 67.5997 52.3517 67.7666C52.4917 67.7942 52.4917 67.9607 52.4076 68.0442Z" fill="#AAAAAA"/>
<path d="M61.2534 41.4865C60.7496 41.931 60.4976 41.4589 59.6858 41.042C59.49 40.931 59.1821 41.0975 59.0979 41.431C59.07 41.5975 58.7341 41.8755 58.7062 41.9034C58.3983 41.9865 58.0903 42.2365 57.8103 41.8755C57.5303 41.5144 57.6703 41.042 57.8945 40.7641C58.6783 39.7641 59.8258 39.4586 61.0293 40.2086C61.3093 40.3475 61.4772 41.2644 61.2534 41.4865Z" fill="#AAAAAA"/>
<path d="M49.9441 42.2088C49.6645 42.4309 49.3565 42.2644 49.1045 42.0699C49.0486 42.0144 49.0207 41.9588 48.9924 41.9033C48.1807 41.1809 47.9569 41.2085 47.2569 42.0699C47.1452 42.1809 47.061 42.3478 46.8931 42.2644C46.6131 42.0975 46.5014 41.7644 46.5572 41.4864C46.6131 40.903 47.8169 40.014 48.6565 40.0419C49.2445 40.014 49.7203 40.6254 50.1962 41.153C50.5321 41.4864 50.2803 41.9309 49.9441 42.2088Z" fill="#AAAAAA"/>
<path d="M51.932 71.0446C51.0362 71.878 50.1403 72.7115 49.1886 73.4615C48.7406 73.7949 48.2927 74.2394 47.481 74.2115C47.3131 74.1835 47.0893 74.017 47.2851 73.6559C47.4531 73.3225 47.761 73.1559 48.0969 72.9615C48.6848 72.6001 49.3565 72.4335 49.8324 71.8225C50.2803 71.2666 50.98 70.9335 51.6241 70.5721C52.1558 70.3221 52.2958 70.7666 51.932 71.0446Z" fill="#AAAAAA"/>
<path d="M53.5835 66.5722C52.9955 66.6836 51.9876 66.1557 51.7359 65.6001C51.5959 65.2946 51.6797 65.0722 51.8759 64.9332C52.0718 64.7943 52.2955 64.9612 52.4355 65.1277C52.7714 65.5446 53.1635 65.7391 53.6952 65.4332C53.9752 65.2667 54.1431 65.1001 54.1431 64.7943C54.1431 64.4332 54.1711 64.0167 54.619 64.0443C55.0948 64.0722 55.1511 64.5443 55.2069 64.9332C55.319 65.4612 54.199 66.4612 53.5835 66.5722Z" fill="#AAAAAA"/>
</svg>
