<svg width="1060" height="394" viewBox="0 0 1060 394" fill="none" xmlns="http://www.w3.org/2000/svg">
<path d="M800.218 90.7103C799.907 87.7601 801.15 85.8967 804.1 85.5862C806.895 85.2756 808.603 86.6731 809.069 89.6233L810.156 99.0951C810.466 102.045 809.224 103.909 806.274 104.219C803.479 104.53 801.771 103.132 801.305 100.182L800.218 90.7103ZM804.255 100.182C804.41 101.424 805.031 101.89 805.963 101.89C806.895 101.735 807.361 101.114 807.205 99.8715L806.118 89.9339C805.963 88.6917 805.342 88.2259 804.41 88.2259C803.479 88.3811 803.013 89.0023 803.168 90.2445L804.255 100.182ZM815.435 84.4993L818.075 84.1887L810.156 114.312L807.516 114.623L815.435 84.4993ZM815.745 99.7162C815.435 96.766 816.677 94.9027 819.627 94.5922C822.422 94.2816 824.13 95.6791 824.596 98.6293L825.683 108.101C825.994 111.051 824.751 112.915 821.801 113.225C819.006 113.536 817.298 112.138 816.832 109.188L815.745 99.7162ZM819.783 109.033C819.938 110.275 820.559 110.741 821.491 110.741C822.422 110.585 822.888 109.964 822.733 108.722L821.646 98.7846C821.491 97.5424 820.87 97.0765 819.938 97.0765C819.006 97.2318 818.54 97.8529 818.696 99.0951L819.783 109.033Z" fill="#767778"/>
<path d="M832.363 119.748L798.823 123.63C797.271 123.785 795.718 122.698 795.563 121.145L791.525 86.3635C791.37 85.1213 791.836 83.7239 792.768 82.7922L806.742 68.9727C808.14 67.5753 810.314 67.42 812.022 68.3516L828.947 78.5998C830.034 79.2209 830.81 80.4631 830.965 81.7053L835.002 116.487C835.002 118.04 833.916 119.437 832.363 119.748Z" stroke="#767778" stroke-miterlimit="10" stroke-linecap="round" stroke-linejoin="round"/>
<path d="M812.018 72.8544C812.173 74.0966 811.242 75.1836 810.155 75.1836C808.912 75.3388 807.825 74.4072 807.825 73.3202C807.67 72.078 808.602 70.9911 809.689 70.9911C810.776 70.8358 811.863 71.6122 812.018 72.8544Z" stroke="#767778" stroke-miterlimit="10" stroke-linecap="round" stroke-linejoin="round"/>
<path d="M809.855 48.4763C809.855 48.4763 816.377 73.7862 809.855 73.0098" stroke="#767778" stroke-miterlimit="10" stroke-linecap="round" stroke-linejoin="round"/>
<path d="M808.137 68.0412C809.379 61.0538 815.9 49.0977 815.9 49.0977" stroke="#767778" stroke-miterlimit="10" stroke-linecap="round" stroke-linejoin="round"/>
<path d="M809.845 73.1646C808.913 73.0093 808.447 72.5435 808.137 71.7671" stroke="#767778" stroke-miterlimit="10" stroke-linecap="round" stroke-linejoin="round"/>
<path d="M839.203 57.9487C844.948 62.607 849.607 68.818 852.246 76.1159" stroke="#767778" stroke-miterlimit="10" stroke-linecap="round" stroke-linejoin="round"/>
<path d="M771.043 80.3078C775.235 64.1592 788.589 51.4267 806.135 48.787C816.694 47.2342 826.787 49.7186 835.172 54.998" stroke="#767778" stroke-miterlimit="10" stroke-linecap="round" stroke-linejoin="round"/>
<path d="M784.396 123.163C776.942 116.642 771.818 107.636 770.266 97.2324" stroke="#767778" stroke-miterlimit="10" stroke-linecap="round" stroke-linejoin="round"/>
<path d="M810.636 133.722C802.717 133.412 795.108 130.928 788.742 126.735" stroke="#767778" stroke-miterlimit="10" stroke-linecap="round" stroke-linejoin="round"/>
<path d="M854.582 84.9663C857.998 108.258 841.85 129.841 818.558 133.257" stroke="#767778" stroke-miterlimit="10" stroke-linecap="round" stroke-linejoin="round"/>
<path d="M749.28 271.762L700.679 262.446C699.282 262.135 698.35 260.893 698.661 259.495L704.872 227.509L758.441 237.912L752.23 269.899C752.075 271.141 750.678 272.073 749.28 271.762Z" stroke="#767778" stroke-miterlimit="10" stroke-linecap="round" stroke-linejoin="round"/>
<path d="M708.133 216.484L759.374 226.422C760.771 226.732 761.703 227.974 761.392 229.372L759.684 237.757L703.319 226.887L704.872 218.503C705.493 217.105 706.736 216.329 708.133 216.484Z" stroke="#767778" stroke-miterlimit="10" stroke-linecap="round" stroke-linejoin="round"/>
<path d="M737.618 222.131L729.995 220.661L721.207 266.248L728.83 267.718L737.618 222.131Z" stroke="#767778" stroke-miterlimit="10" stroke-linecap="round" stroke-linejoin="round"/>
<path d="M733.901 221.453C733.901 221.453 747.254 211.826 753.31 214.621C759.521 217.571 756.416 225.801 753.31 225.18" stroke="#767778" stroke-miterlimit="10" stroke-linecap="round" stroke-linejoin="round"/>
<path d="M739.033 222.54C739.033 222.54 749.903 217.105 751.455 219.59C753.008 222.074 748.35 224.403 744.779 223.627" stroke="#767778" stroke-miterlimit="10" stroke-linecap="round" stroke-linejoin="round"/>
<path d="M734.214 220.832C734.214 220.832 739.804 210.584 739.028 207.323H742.754C742.754 207.323 743.996 211.205 739.649 217.881" stroke="#767778" stroke-miterlimit="10" stroke-linecap="round" stroke-linejoin="round"/>
<path d="M733.906 221.453C733.906 221.453 725.211 207.479 718.379 207.944C711.547 208.41 711.392 217.106 714.497 217.727" stroke="#767778" stroke-miterlimit="10" stroke-linecap="round" stroke-linejoin="round"/>
<path d="M728.628 220.521C728.628 220.521 720.553 211.515 718.224 213.223C715.895 214.931 719.311 218.813 722.882 219.434" stroke="#767778" stroke-miterlimit="10" stroke-linecap="round" stroke-linejoin="round"/>
<path d="M733.757 220.677C733.757 220.677 732.36 209.186 734.223 206.391L730.807 204.994C730.807 204.994 728.167 208.099 729.875 215.863" stroke="#767778" stroke-miterlimit="10" stroke-linecap="round" stroke-linejoin="round"/>
<path d="M773.352 205.149C779.252 212.602 783.134 221.608 784.531 231.39" stroke="#767778" stroke-miterlimit="10" stroke-linecap="round" stroke-linejoin="round"/>
<path d="M682.363 213.844C692.146 195.056 712.487 182.789 735.002 184.653C748.51 185.74 760.467 191.64 769.317 200.491" stroke="#767778" stroke-miterlimit="10" stroke-linecap="round" stroke-linejoin="round"/>
<path d="M686.706 270.985C679.252 260.892 675.371 248.16 676.458 234.651" stroke="#767778" stroke-miterlimit="10" stroke-linecap="round" stroke-linejoin="round"/>
<path d="M716.514 291.482C706.732 288.842 698.036 283.563 691.359 276.576" stroke="#767778" stroke-miterlimit="10" stroke-linecap="round" stroke-linejoin="round"/>
<path d="M784.996 243.036C782.667 273.004 756.425 295.364 726.457 293.035" stroke="#767778" stroke-miterlimit="10" stroke-linecap="round" stroke-linejoin="round"/>
<path d="M1000.38 98.1659L995.875 95.8367C996.651 93.8182 996.651 91.3338 996.496 89.6257C998.048 90.2468 999.446 91.0232 1000.84 91.6443C1000.84 93.5076 1000.69 95.6815 1000.38 98.1659Z" stroke="#767778" stroke-miterlimit="10" stroke-linecap="round" stroke-linejoin="round"/>
<path d="M1007.05 94.5945C1008.6 95.3709 1010.16 95.8367 1011.71 96.1473C1012.8 102.203 1013.26 112.141 1007.98 122.389C1006.74 124.718 994.474 118.352 995.561 116.022C998.355 110.433 999.753 103.756 1000.37 98.0106C1000.68 95.6814 1000.84 93.3523 1000.84 91.489C1003.48 92.8865 1005.65 93.9734 1007.05 94.5945Z" stroke="#767778" stroke-miterlimit="10" stroke-linecap="round" stroke-linejoin="round"/>
<path d="M1021.8 65.869C1025.84 67.8876 1028.63 71.3036 1029.87 75.3408C1031.12 79.2227 1030.96 83.7257 1028.94 87.6075C1026.92 91.6447 1023.51 94.4396 1019.47 95.6818C1016.99 96.4582 1014.35 96.7687 1011.71 96.3029C1010.15 95.9924 1008.6 95.5265 1007.05 94.7502C1005.81 94.1291 1003.48 93.0422 1000.84 91.8C999.441 91.1789 997.888 90.4025 996.49 89.7814C992.919 88.0733 989.503 86.6759 987.64 86.0548L1003.32 55.4656C1006.58 57.6394 1018.07 64.0057 1021.8 65.869Z" stroke="#767778" stroke-miterlimit="10" stroke-linecap="round" stroke-linejoin="round"/>
<path d="M988.111 40.8689C992.459 46.3036 997.583 51.2724 1003.33 55.3095L987.646 85.8987C980.969 83.7249 974.137 82.3274 967.149 82.0168L961.094 81.7063L984.385 36.2107L988.111 40.8689Z" stroke="#767778" stroke-miterlimit="10" stroke-linecap="round" stroke-linejoin="round"/>
<path d="M953.948 82.9491L981.277 29.6898C981.743 28.9134 982.674 28.4476 983.606 28.9134L985.624 30.0003C986.401 30.4661 986.867 31.3978 986.401 32.3294L984.382 36.2113L961.091 81.7069L959.072 85.5888C958.607 86.3652 957.675 86.831 956.743 86.3652L954.725 85.2783C953.793 84.8124 953.482 83.7255 953.948 82.9491Z" stroke="#767778" stroke-miterlimit="10" stroke-linecap="round" stroke-linejoin="round"/>
<path d="M954.715 49.72L944.156 44.2854" stroke="#767778" stroke-miterlimit="10" stroke-linecap="round" stroke-linejoin="round"/>
<path d="M966.99 32.795L960.469 21.3047" stroke="#767778" stroke-miterlimit="10" stroke-linecap="round" stroke-linejoin="round"/>
<path d="M948.354 69.5957L935 70.9932" stroke="#767778" stroke-miterlimit="10" stroke-linecap="round" stroke-linejoin="round"/>
<path d="M1036.08 19.4411C1027.07 11.0562 1015.89 5.15579 1003.47 2.36084" stroke="#767778" stroke-miterlimit="10" stroke-linecap="round" stroke-linejoin="round"/>
<path d="M1015.73 135.897C1041.04 125.183 1058.74 100.184 1058.74 71.1472C1058.74 53.6011 1052.38 37.6078 1041.66 25.3411" stroke="#767778" stroke-miterlimit="10" stroke-linecap="round" stroke-linejoin="round"/>
<path d="M942.606 124.407C954.873 134.965 970.866 141.332 988.412 141.332" stroke="#767778" stroke-miterlimit="10" stroke-linecap="round" stroke-linejoin="round"/>
<path d="M919.316 83.8799C921.645 96.7677 927.701 108.413 936.086 117.885" stroke="#767778" stroke-miterlimit="10" stroke-linecap="round" stroke-linejoin="round"/>
<path d="M988.414 0.652344C949.595 0.652344 918.074 32.1732 918.074 70.9919" stroke="#767778" stroke-miterlimit="10" stroke-linecap="round" stroke-linejoin="round"/>
<path d="M863.888 184.342C857.988 179.062 851.932 181.392 848.671 183.255C848.05 179.684 845.876 173.473 837.957 172.386C829.417 171.299 822.43 179.528 824.759 191.174C826.467 199.559 831.746 207.167 834.541 210.739C834.852 211.204 835.162 211.515 835.473 211.826C835.939 211.826 836.404 211.826 836.87 211.826C841.529 211.67 850.69 210.739 858.143 206.546C868.546 200.646 870.254 189.932 863.888 184.342Z" stroke="#767778" stroke-miterlimit="10" stroke-linecap="round" stroke-linejoin="round"/>
<path d="M830.679 217.26C830.679 217.26 830.213 218.036 829.747 219.434" stroke="#767778" stroke-linecap="round" stroke-linejoin="round"/>
<path d="M828.19 223.626C825.861 231.235 824.618 243.967 836.73 251.731C867.319 271.296 877.723 225.179 854.276 229.371C838.283 232.166 855.052 274.556 880.207 266.327" stroke="#767778" stroke-linecap="round" stroke-linejoin="round" stroke-dasharray="2.95 2.95"/>
<path d="M882.38 265.551C883.001 265.24 883.777 264.929 884.399 264.464" stroke="#767778" stroke-linecap="round" stroke-linejoin="round"/>
<path d="M180.28 279.465L175.777 277.136C176.553 275.118 176.553 272.633 176.398 270.925C177.951 271.546 179.348 272.323 180.746 272.944C180.746 274.807 180.59 276.981 180.28 279.465Z" stroke="#767778" stroke-miterlimit="10" stroke-linecap="round" stroke-linejoin="round"/>
<path d="M186.953 275.894C188.506 276.67 190.059 277.136 191.611 277.447C192.698 283.503 193.164 293.44 187.885 303.688C186.643 306.017 174.376 299.651 175.463 297.322C178.258 291.732 179.655 285.055 180.276 279.31C180.587 276.981 180.742 274.652 180.742 272.789C183.382 274.186 185.556 275.273 186.953 275.894Z" stroke="#767778" stroke-miterlimit="10" stroke-linecap="round" stroke-linejoin="round"/>
<path d="M201.703 247.169C205.74 249.187 208.535 252.603 209.777 256.64C211.019 260.522 210.864 265.025 208.845 268.907C206.827 272.944 203.411 275.739 199.373 276.981C196.889 277.758 194.249 278.068 191.61 277.602C190.057 277.292 188.504 276.826 186.951 276.05C185.709 275.429 183.38 274.342 180.74 273.1C179.343 272.478 177.79 271.702 176.393 271.081C172.821 269.373 169.405 267.975 167.542 267.354L183.225 236.765C186.486 238.939 197.976 245.305 201.703 247.169Z" stroke="#767778" stroke-miterlimit="10" stroke-linecap="round" stroke-linejoin="round"/>
<path d="M168.014 222.169C172.362 227.603 177.486 232.572 183.231 236.609L167.548 267.198C160.871 265.024 154.039 263.627 147.052 263.316L140.996 263.006L164.287 217.51L168.014 222.169Z" stroke="#767778" stroke-miterlimit="10" stroke-linecap="round" stroke-linejoin="round"/>
<path d="M133.851 264.249L161.179 210.989C161.645 210.213 162.577 209.747 163.508 210.213L165.527 211.3C166.303 211.766 166.769 212.697 166.303 213.629L164.285 217.511L140.993 263.006L138.975 266.888C138.509 267.665 137.577 268.131 136.646 267.665L134.627 266.578C133.695 266.112 133.385 265.025 133.851 264.249Z" stroke="#767778" stroke-miterlimit="10" stroke-linecap="round" stroke-linejoin="round"/>
<path d="M134.617 231.02L124.059 225.585" stroke="#767778" stroke-miterlimit="10" stroke-linecap="round" stroke-linejoin="round"/>
<path d="M146.893 214.095L140.371 202.604" stroke="#767778" stroke-miterlimit="10" stroke-linecap="round" stroke-linejoin="round"/>
<path d="M128.256 250.895L114.902 252.293" stroke="#767778" stroke-miterlimit="10" stroke-linecap="round" stroke-linejoin="round"/>
<path d="M215.983 200.741C206.977 192.356 195.797 186.455 183.375 183.66" stroke="#767778" stroke-miterlimit="10" stroke-linecap="round" stroke-linejoin="round"/>
<path d="M195.634 317.196C220.943 306.483 238.645 281.483 238.645 252.447C238.645 234.901 232.278 218.907 221.565 206.641" stroke="#767778" stroke-miterlimit="10" stroke-linecap="round" stroke-linejoin="round"/>
<path d="M122.509 305.706C134.775 316.265 150.769 322.631 168.315 322.631" stroke="#767778" stroke-miterlimit="10" stroke-linecap="round" stroke-linejoin="round"/>
<path d="M99.2186 265.179C101.548 278.067 107.603 289.713 115.988 299.185" stroke="#767778" stroke-miterlimit="10" stroke-linecap="round" stroke-linejoin="round"/>
<path d="M168.316 181.952C129.497 181.952 97.9764 213.473 97.9764 252.292" stroke="#767778" stroke-miterlimit="10" stroke-linecap="round" stroke-linejoin="round"/>
<path d="M43.7905 365.641C37.8901 360.362 31.8343 362.691 28.5736 364.554C27.9525 360.983 25.7786 354.772 17.8596 353.685C9.31946 352.598 2.33208 360.828 4.66121 372.473C6.36923 380.858 11.6486 388.467 14.4435 392.038C14.7541 392.504 15.0646 392.815 15.3752 393.125C15.841 393.125 16.3068 393.125 16.7726 393.125C21.4309 392.97 30.5921 392.038 38.0454 387.846C48.4488 381.945 50.1568 371.231 43.7905 365.641Z" stroke="#767778" stroke-miterlimit="10" stroke-linecap="round" stroke-linejoin="round"/>
</svg>
